<?xml version="1.0" standalone="no"?>
<!DOCTYPE svg PUBLIC "-//W3C//DTD SVG 20010904//EN"
 "http://www.w3.org/TR/2001/REC-SVG-20010904/DTD/svg10.dtd">
<svg version="1.0" xmlns="http://www.w3.org/2000/svg"
 width="3840.000000pt" height="2160.000000pt" viewBox="0 0 3840.000000 2160.000000"
 preserveAspectRatio="xMidYMid meet">
<metadata>
Created by potrace 1.13, written by Peter Selinger 2001-2015
</metadata>
<g transform="translate(0.000000,2160.000000) scale(0.100000,-0.100000)"
fill="#000000" stroke="none">
<path d="M31061 21550 c-45 -68 -123 -150 -141 -150 -9 0 -23 -15 -33 -32 -18
-34 -43 -51 -178 -119 -55 -28 -98 -42 -155 -50 -43 -6 -83 -14 -89 -19 -5 -4
-32 -15 -60 -23 -71 -22 -123 -45 -143 -65 -10 -9 -35 -26 -56 -37 -21 -11
-45 -30 -53 -42 -9 -13 -21 -23 -29 -23 -7 0 -30 -11 -50 -25 -20 -14 -43 -25
-50 -25 -7 0 -22 -13 -33 -29 -15 -20 -32 -30 -58 -34 -21 -3 -60 -10 -88 -17
-27 -6 -75 -15 -105 -20 -30 -5 -65 -12 -77 -16 -20 -5 -23 -3 -23 18 0 14 -2
27 -5 30 -8 8 -91 -9 -128 -26 -18 -8 -84 -31 -147 -52 -63 -20 -123 -43 -132
-51 -9 -8 -21 -12 -26 -9 -5 3 -27 -6 -48 -21 -41 -28 -140 -61 -209 -70 -25
-4 -48 -14 -60 -29 -11 -13 -25 -24 -30 -24 -6 0 -23 -7 -39 -15 -15 -8 -32
-12 -37 -10 -4 3 -26 -3 -47 -14 -21 -11 -53 -19 -70 -19 -17 1 -42 -6 -56
-15 -35 -23 -46 -21 -46 8 0 14 -3 25 -7 25 -62 -2 -177 -32 -220 -58 -29 -17
-69 -36 -90 -42 -21 -6 -74 -31 -118 -55 -44 -25 -91 -50 -105 -56 -13 -5 -42
-28 -64 -50 -22 -21 -46 -39 -53 -39 -7 0 -21 -4 -31 -9 -43 -22 -126 -42
-235 -57 -112 -16 -118 -16 -137 1 -17 15 -24 16 -43 7 -12 -6 -44 -19 -72
-28 -27 -9 -68 -25 -89 -35 -22 -11 -45 -19 -52 -19 -7 0 -45 -16 -84 -36 -50
-26 -81 -50 -103 -80 -18 -23 -44 -48 -58 -54 -14 -6 -46 -29 -70 -52 -24 -22
-65 -50 -91 -63 -26 -12 -53 -27 -60 -32 -26 -20 -135 -53 -179 -53 -55 0
-129 -20 -194 -53 -27 -13 -66 -32 -85 -41 -50 -24 -62 -35 -99 -96 -19 -30
-49 -71 -66 -90 -58 -65 -95 -144 -95 -208 0 -19 -11 -49 -25 -70 -14 -20 -25
-49 -25 -64 0 -39 -33 -106 -75 -151 -19 -21 -35 -43 -35 -49 0 -12 -71 -77
-84 -78 -5 0 -17 -6 -25 -13 -9 -7 -47 -23 -86 -36 -38 -12 -79 -26 -90 -30
-11 -5 -54 -19 -95 -32 -41 -12 -80 -27 -87 -31 -6 -5 -45 -20 -86 -33 -92
-29 -135 -50 -164 -81 -12 -13 -29 -24 -39 -24 -9 0 -30 -6 -47 -14 -63 -27
-93 -36 -134 -40 -23 -2 -46 -7 -52 -11 -7 -3 -11 2 -11 14 0 33 -16 33 -87 1
-37 -18 -88 -38 -113 -47 -25 -8 -74 -28 -108 -45 -35 -17 -78 -34 -95 -39
-59 -15 -132 -45 -178 -72 -25 -15 -51 -27 -58 -27 -6 0 -19 -4 -29 -9 -29
-16 -105 -39 -159 -50 -29 -6 -76 -16 -104 -22 -37 -7 -54 -7 -65 1 -10 9 -26
8 -66 -6 -29 -10 -57 -22 -62 -26 -6 -4 -17 -8 -25 -8 -19 0 -212 -78 -225
-91 -6 -5 -17 -9 -25 -9 -9 0 -33 -14 -55 -30 -23 -17 -61 -33 -95 -40 -31 -6
-63 -15 -72 -20 -16 -8 -83 -28 -104 -31 -5 0 -14 -4 -20 -9 -17 -14 -173 -40
-202 -34 -18 4 -56 -5 -108 -25 -44 -17 -83 -31 -87 -31 -5 0 -38 -18 -74 -40
-36 -22 -74 -40 -84 -40 -11 0 -21 -4 -25 -9 -3 -6 -27 -13 -53 -16 -26 -3
-54 -10 -62 -14 -9 -5 -36 -12 -60 -16 -25 -4 -49 -11 -55 -15 -11 -8 -62 -17
-179 -30 -77 -9 -151 -43 -187 -86 -27 -32 -178 -112 -259 -136 -93 -29 -119
-34 -229 -48 -107 -14 -197 -65 -286 -160 -16 -17 -41 -41 -54 -53 -65 -61
-163 -230 -180 -314 -17 -87 -62 -223 -73 -223 -5 0 -8 -9 -8 -19 0 -11 -7
-26 -15 -35 -8 -8 -13 -21 -10 -28 6 -15 -37 -68 -55 -68 -5 0 -10 -3 -10 -8
0 -8 -23 -16 -135 -51 -38 -12 -85 -29 -103 -37 -18 -8 -42 -14 -54 -14 -11 0
-36 -9 -54 -21 -19 -11 -34 -18 -34 -16 0 10 -217 -66 -232 -81 -7 -7 -19 -12
-28 -12 -9 0 -21 -5 -27 -11 -12 -12 -100 -36 -203 -54 -83 -15 -133 -31 -173
-58 -14 -9 -37 -17 -49 -17 -13 0 -36 -7 -52 -15 -15 -8 -36 -15 -46 -15 -9 0
-32 -7 -51 -16 -95 -46 -119 -56 -184 -77 -66 -21 -70 -25 -73 -55 -3 -31 -44
-72 -72 -72 -6 0 -33 -7 -59 -16 -38 -12 -57 -13 -86 -5 -38 10 -65 6 -65 -11
0 -5 -6 -8 -12 -5 -7 2 -20 -2 -30 -10 -14 -13 -17 -10 -23 26 -5 29 -12 41
-23 41 -22 0 -86 -23 -103 -36 -8 -6 -36 -17 -64 -24 -54 -15 -128 -51 -157
-77 -10 -9 -18 -13 -18 -9 0 3 -13 -6 -29 -22 -19 -18 -58 -36 -108 -51 -90
-26 -138 -41 -246 -76 -74 -25 -79 -25 -112 -10 -43 21 -67 14 -124 -40 -41
-38 -58 -46 -136 -65 -50 -11 -101 -24 -115 -27 -14 -3 -32 -8 -40 -9 -8 -2
-63 -7 -122 -10 l-108 -7 0 41 c0 22 -4 43 -9 47 -16 9 -118 -34 -150 -64 -17
-16 -32 -43 -36 -64 -6 -30 -12 -37 -31 -37 -12 0 -25 -4 -29 -10 -3 -5 -26
-9 -51 -8 -37 0 -51 -5 -75 -28 -27 -26 -37 -29 -132 -34 -56 -3 -108 -9 -114
-13 -15 -9 -16 -3 -17 73 -1 49 -3 55 -23 58 -13 2 -23 -1 -23 -7 0 -6 -8 -11
-18 -11 -10 0 -23 -5 -30 -12 -9 -9 -25 -8 -69 1 -75 16 -103 30 -103 53 0 10
-6 17 -12 15 -15 -2 -14 10 5 83 8 30 20 56 26 58 6 2 11 9 11 15 0 6 17 26
37 44 30 28 34 36 22 44 -10 6 -11 11 -3 17 6 4 17 18 24 31 10 19 10 25 -1
33 -11 7 -11 11 -1 15 14 6 17 63 2 63 -5 0 -10 13 -10 29 0 15 -9 39 -19 53
-12 15 -18 33 -15 45 3 11 -1 34 -10 51 -9 17 -16 42 -16 57 0 14 -4 25 -10
25 -5 0 -10 9 -10 20 0 11 -4 20 -10 20 -5 0 -10 14 -10 30 0 17 -4 30 -10 30
-5 0 -10 21 -10 46 0 41 -4 50 -49 93 -35 34 -52 59 -56 85 -5 25 -17 43 -39
58 -17 12 -38 30 -47 40 -32 35 -109 16 -109 -27 0 -12 -5 -15 -16 -11 -19 7
-54 -10 -54 -27 0 -6 -38 -49 -85 -94 -47 -45 -85 -89 -85 -96 0 -8 -13 -28
-29 -45 -37 -38 -57 -77 -66 -125 -4 -20 -11 -40 -16 -43 -5 -3 -7 -10 -3 -15
3 -5 1 -15 -4 -22 -6 -7 -13 -29 -17 -49 -4 -20 -13 -39 -20 -41 -20 -8 -13
-175 9 -209 10 -16 24 -28 32 -28 7 0 16 -16 20 -35 3 -20 12 -35 20 -35 8 0
14 -9 14 -20 0 -11 6 -20 13 -20 13 0 60 -97 77 -160 6 -22 15 -40 20 -40 6 0
10 -9 10 -21 0 -13 8 -23 21 -26 18 -5 20 -11 16 -39 -3 -20 0 -39 8 -51 22
-28 19 -63 -5 -63 -23 0 -24 -4 -9 -32 9 -16 8 -23 -2 -29 -12 -8 -12 -11 0
-18 12 -8 12 -12 -2 -25 -8 -9 -23 -16 -32 -16 -9 0 -42 -28 -73 -62 -95 -103
-133 -135 -172 -147 -21 -6 -40 -18 -43 -26 -4 -8 -15 -12 -27 -10 -11 2 -20
-1 -20 -6 0 -6 -4 -8 -9 -4 -5 3 -12 1 -15 -4 -3 -5 -21 -12 -40 -15 -25 -5
-37 -14 -46 -36 -7 -16 -10 -35 -7 -42 2 -7 0 -40 -4 -73 -5 -33 -11 -102 -13
-152 -2 -55 -8 -99 -16 -108 -8 -10 -9 -15 -1 -15 20 0 12 -36 -14 -60 -14
-13 -23 -30 -20 -37 2 -8 -9 -28 -25 -45 -34 -35 -36 -43 -15 -65 22 -21 14
-37 -20 -41 -16 -2 -40 -12 -53 -23 -14 -10 -33 -19 -43 -19 -10 0 -20 -4 -23
-9 -3 -4 -36 -23 -73 -41 -92 -44 -106 -51 -124 -53 -9 -2 -28 -10 -42 -20
-15 -9 -31 -17 -37 -17 -7 0 -42 -18 -80 -40 -38 -22 -76 -40 -84 -40 -9 0
-16 -4 -16 -9 0 -5 -10 -12 -22 -16 -13 -3 -34 -11 -48 -17 -14 -5 -38 -16
-55 -23 -45 -18 -110 -51 -210 -105 -49 -26 -96 -49 -103 -49 -7 -1 -32 -10
-54 -21 -23 -11 -48 -20 -55 -20 -7 0 -13 -4 -13 -10 0 -5 -9 -10 -20 -10 -11
0 -20 -4 -20 -9 0 -13 -91 -40 -160 -48 -33 -3 -60 -10 -60 -14 0 -5 -11 -9
-25 -9 -27 0 -115 -40 -115 -52 0 -4 -8 -8 -18 -8 -11 0 -27 -9 -37 -20 -10
-11 -24 -20 -32 -20 -7 0 -16 -7 -20 -15 -3 -9 -24 -25 -47 -37 -22 -11 -45
-27 -49 -34 -4 -8 -15 -14 -22 -14 -9 0 -15 -10 -15 -24 0 -18 -7 -25 -30 -29
-17 -4 -30 -13 -30 -21 0 -8 -9 -18 -20 -21 -11 -3 -25 -15 -30 -26 -6 -10
-17 -19 -25 -19 -19 0 -83 -82 -122 -157 -12 -23 -24 -33 -40 -33 -13 0 -23
-4 -23 -8 0 -9 -16 -13 -50 -12 -68 1 -115 -2 -190 -14 -76 -12 -160 37 -160
94 0 34 -18 77 -34 83 -25 9 -75 -6 -81 -24 -4 -10 -11 -19 -16 -19 -18 0
-143 -52 -170 -71 -14 -10 -52 -28 -85 -40 -32 -11 -79 -30 -103 -42 -24 -11
-60 -24 -80 -28 -20 -4 -75 -24 -122 -43 -111 -46 -179 -59 -232 -45 -39 10
-114 -1 -142 -21 -15 -11 -120 -40 -145 -40 -12 0 -45 -12 -73 -26 -31 -15
-81 -29 -127 -34 -95 -12 -118 -18 -152 -42 -16 -11 -28 -17 -28 -15 0 3 -24
-4 -52 -15 -86 -33 -126 -39 -259 -42 -147 -4 -216 -18 -274 -57 -24 -16 -46
-29 -49 -29 -3 0 -29 -11 -58 -25 -28 -14 -58 -25 -65 -25 -7 0 -13 -4 -13 -9
0 -16 -42 -55 -73 -69 -15 -6 -27 -19 -27 -27 0 -9 -4 -14 -8 -11 -5 3 -15 -6
-22 -19 -7 -14 -17 -25 -22 -25 -11 0 -48 -38 -48 -49 0 -4 -11 -25 -25 -45
-14 -21 -23 -42 -19 -47 3 -6 0 -24 -7 -41 -10 -24 -10 -31 0 -38 15 -9 1 -43
-28 -70 -41 -38 -45 -50 -25 -65 18 -15 18 -15 1 -29 -13 -10 -17 -21 -12 -38
5 -17 4 -19 -4 -8 -8 12 -13 11 -31 -10 -20 -23 -23 -23 -66 -12 -24 7 -51 12
-60 12 -8 0 -26 11 -40 25 -14 14 -29 25 -34 25 -5 0 -16 8 -26 17 -13 13 -19
14 -22 5 -2 -6 -17 -12 -33 -12 -16 0 -29 -4 -29 -10 0 -5 -9 -10 -20 -10 -11
0 -20 -6 -20 -12 0 -7 -7 -4 -16 7 -14 19 -16 19 -28 3 -15 -20 -66 -24 -66
-5 0 8 -4 7 -11 -3 -8 -11 -12 -12 -16 -2 -7 17 -23 15 -23 -4 0 -8 -6 -22
-14 -30 -17 -16 -66 -19 -66 -3 0 6 -10 9 -22 8 -38 -4 -98 12 -98 26 0 15
-28 28 -41 19 -12 -7 -99 17 -99 28 0 4 -15 8 -33 8 -18 0 -37 4 -43 10 -5 5
-59 10 -119 12 -95 1 -116 -1 -154 -20 -25 -12 -50 -22 -56 -22 -6 0 -17 -9
-25 -20 -8 -11 -20 -20 -27 -20 -6 0 -46 -33 -88 -72 -43 -40 -97 -86 -121
-102 -24 -15 -44 -32 -44 -36 0 -5 -15 -12 -32 -15 -18 -4 -49 -15 -68 -25
-19 -10 -60 -21 -90 -25 -30 -4 -59 -11 -65 -15 -5 -4 -35 -8 -67 -8 -34 0
-66 -7 -80 -16 -49 -32 -250 -54 -312 -34 -40 14 -128 10 -138 -5 -6 -9 -11
-8 -19 3 -8 11 -12 12 -16 3 -6 -15 -63 -18 -63 -3 0 6 -9 10 -20 10 -11 0
-20 -4 -20 -8 0 -4 -16 -8 -36 -9 -20 -1 -40 -7 -44 -13 -4 -7 -12 -10 -17 -7
-26 16 -283 -25 -283 -45 0 -5 -6 -8 -14 -8 -13 0 -45 -15 -76 -35 -68 -45
-417 -44 -443 2 -5 8 -16 11 -28 8 -10 -4 -19 -2 -19 3 0 5 -27 15 -60 22 -33
7 -60 16 -60 20 0 4 -30 12 -68 18 -91 14 -165 32 -177 43 -5 5 -24 9 -42 9
-18 0 -33 5 -33 11 0 10 -21 10 -121 -4 -14 -2 -32 -8 -40 -12 -22 -14 -164
-36 -226 -35 -18 0 -33 -5 -33 -11 0 -6 -9 -8 -20 -4 -11 3 -41 8 -67 11 -27
2 -50 9 -51 14 -2 6 -10 10 -17 10 -7 0 -15 5 -17 11 -2 6 -17 11 -33 12 -17
1 -38 11 -48 22 -15 16 -20 17 -28 5 -8 -13 -10 -13 -19 0 -9 13 -11 13 -21 0
-8 -11 -12 -12 -16 -2 -2 6 -18 12 -34 12 -16 0 -29 5 -29 10 0 6 -8 10 -18
10 -10 0 -24 10 -32 22 -32 47 -71 79 -90 73 -10 -3 -22 0 -27 7 -4 8 -28 22
-53 32 -25 10 -59 25 -77 32 -17 8 -47 14 -67 14 -20 0 -36 5 -36 11 0 6 -7 8
-16 5 -31 -12 -81 5 -93 30 -10 23 -15 25 -59 18 -26 -4 -48 -11 -50 -15 -7
-19 -22 -8 -22 16 0 14 -4 25 -10 25 -5 0 -10 -7 -10 -15 0 -8 -4 -15 -10 -15
-5 0 -10 5 -10 10 0 6 -13 10 -30 10 -16 0 -30 5 -30 10 0 6 5 10 10 10 6 0
10 5 10 10 0 6 -37 10 -90 10 -53 0 -90 -4 -90 -10 0 -5 -9 -10 -20 -10 -11 0
-20 -5 -20 -11 0 -6 -8 -8 -19 -4 -13 4 -31 -6 -61 -35 -23 -22 -46 -40 -51
-40 -4 0 -29 -20 -53 -45 -25 -25 -52 -45 -61 -45 -8 0 -15 -8 -15 -18 0 -10
-9 -24 -20 -32 -11 -8 -20 -26 -20 -41 0 -14 -9 -38 -20 -52 -11 -14 -20 -36
-20 -49 0 -13 -9 -30 -20 -38 -11 -8 -20 -22 -20 -32 0 -10 -4 -18 -10 -18 -5
0 -10 -7 -10 -15 0 -17 -48 -68 -74 -78 -9 -4 -16 -12 -16 -19 0 -17 -36 -48
-55 -48 -8 0 -15 -9 -15 -20 0 -22 -16 -27 -23 -7 -3 8 -11 5 -24 -10 -11 -13
-28 -23 -37 -23 -9 0 -16 -4 -16 -10 0 -5 -9 -10 -20 -10 -11 0 -20 5 -20 10
0 6 -4 10 -10 10 -5 0 -10 -10 -10 -22 0 -21 -1 -21 -152 -14 -93 4 -170 12
-196 21 -24 9 -48 13 -53 10 -5 -4 -37 7 -72 24 -75 36 -168 61 -233 61 -27 1
-67 7 -89 15 -22 8 -49 15 -60 15 -59 0 -185 65 -185 95 0 8 -4 15 -10 15 -5
0 -10 22 -10 49 0 43 -3 51 -22 57 -13 3 -30 14 -39 23 -9 9 -31 28 -50 43
-99 77 -114 92 -126 118 -6 17 -17 35 -22 42 -6 7 -29 35 -52 62 -35 42 -40
54 -35 81 5 27 2 35 -19 49 -14 9 -25 13 -25 10 0 -4 -8 0 -17 8 -10 8 -50 29
-89 46 -60 27 -79 31 -115 26 -45 -7 -119 -39 -130 -56 -3 -5 -9 -9 -13 -8 -3
0 -21 -3 -39 -8 -27 -7 -71 -9 -99 -3 -3 0 -29 32 -58 71 -28 38 -60 72 -70
75 -11 3 -41 26 -67 51 -27 24 -56 47 -65 50 -10 3 -18 9 -18 13 0 4 -34 45
-75 90 -41 46 -75 89 -75 97 0 7 -9 28 -20 48 -18 29 -21 54 -23 158 -2 130 4
205 22 251 6 16 11 40 11 55 1 31 20 60 36 55 17 -6 36 24 29 47 -3 11 -15 20
-25 20 -15 0 -17 6 -13 39 3 22 2 56 -1 75 -7 34 -9 36 -47 36 -29 0 -55 10
-99 39 -33 21 -77 41 -98 45 -59 9 -86 44 -87 114 -1 55 -5 72 -27 118 -14 30
-4 260 12 279 7 8 19 15 27 15 8 0 35 15 60 32 l45 33 146 0 146 0 36 -35 c57
-58 124 -142 137 -173 7 -16 13 -43 13 -61 0 -17 11 -53 25 -79 14 -26 23 -51
21 -56 -7 -11 14 -74 28 -83 8 -6 7 -11 -3 -17 -12 -8 -12 -11 0 -24 37 -37
97 -49 118 -23 7 8 33 14 67 14 44 0 59 5 70 20 7 11 30 23 51 27 21 4 40 11
43 15 7 11 106 -7 147 -26 41 -19 56 -18 77 5 17 19 14 43 -10 71 -6 8 -17 34
-23 58 -7 23 -16 42 -21 42 -6 0 -10 8 -10 18 0 9 -8 31 -19 48 -24 40 -30 99
-15 143 7 20 13 61 14 91 0 32 7 63 15 74 8 11 15 36 15 57 0 24 5 39 15 43
16 6 22 76 7 90 -4 4 -12 24 -17 44 -8 28 -17 38 -41 44 -27 7 -32 14 -39 50
-10 62 -21 189 -16 194 3 2 5 27 5 55 1 45 -2 53 -27 71 -24 17 -28 26 -23 48
3 19 1 30 -8 33 -21 8 -39 98 -30 152 7 47 7 47 40 40 26 -4 34 -3 34 9 0 9
10 21 22 27 22 12 22 12 1 20 -22 8 -36 52 -21 67 6 6 5 18 -2 32 -7 13 -10
38 -7 57 5 30 3 35 -21 45 -15 7 -27 12 -28 13 0 0 2 29 6 65 5 51 2 72 -12
102 -10 20 -18 41 -18 46 0 5 -9 17 -21 27 -17 17 -24 17 -52 6 -18 -7 -39
-14 -46 -15 -16 -3 -23 -13 -41 -63 -7 -18 -19 -33 -27 -33 -8 0 -21 -7 -29
-15 -8 -8 -37 -17 -65 -21 -37 -5 -55 -14 -74 -35 -44 -53 -111 -66 -150 -29
-12 11 -26 20 -32 20 -6 0 -16 7 -23 15 -7 8 -18 15 -25 15 -7 0 -30 16 -51
35 -21 19 -43 35 -49 35 -21 0 -118 132 -121 164 -5 71 -13 116 -24 136 -9 17
-8 29 5 56 27 56 31 135 9 183 -10 22 -24 41 -32 41 -8 0 -26 7 -41 16 -26 15
-30 15 -64 -1 -34 -16 -36 -16 -56 4 -22 22 -41 27 -41 11 0 -22 -20 -8 -26
18 -4 15 -13 35 -21 44 -11 12 -12 21 -4 36 19 35 -36 167 -75 183 -60 22 -68
1 -34 -90 11 -30 18 -56 16 -59 -3 -2 -13 1 -24 7 -32 17 -92 14 -92 -5 0 -8
-4 -12 -10 -9 -5 3 -10 15 -10 27 0 11 -8 22 -17 24 -44 12 -18 184 27 184 5
0 16 -7 24 -16 14 -14 18 -13 42 9 39 36 48 100 22 151 -13 24 -18 49 -14 67
3 19 -1 35 -15 53 -21 26 -27 64 -33 191 -2 33 -10 74 -19 90 -9 17 -17 37
-17 45 0 8 -11 35 -23 60 -13 25 -34 80 -47 123 -13 42 -28 77 -33 77 -4 0 -6
9 -3 20 3 11 9 29 12 40 4 14 1 20 -10 20 -9 0 -16 -9 -16 -20 0 -11 -4 -20
-10 -20 -5 0 -10 -7 -10 -15 0 -27 -41 -16 -76 20 -33 34 -76 46 -89 25 -3 -5
-30 -10 -58 -10 -40 0 -62 6 -91 26 -35 24 -44 26 -98 20 -37 -5 -66 -14 -78
-26 -13 -13 -41 -20 -94 -25 l-76 -7 0 -544 0 -544 29 0 c16 0 36 7 45 15 12
12 27 14 64 9 30 -4 57 -2 70 5 26 14 79 -10 130 -58 18 -18 36 -29 41 -27 5
3 16 -3 26 -14 10 -11 22 -20 28 -20 5 0 29 -20 53 -45 25 -25 71 -58 104 -74
56 -28 59 -29 65 -10 7 22 21 25 28 7 3 -10 7 -10 20 1 15 12 17 11 17 -8 0
-12 -6 -21 -15 -21 -8 0 -15 -5 -15 -10 0 -6 -11 -16 -25 -22 -14 -6 -25 -18
-25 -26 0 -17 37 -52 56 -52 17 0 64 21 64 29 0 3 7 15 15 25 14 19 15 19 36
-5 16 -18 20 -33 16 -61 -3 -26 -1 -38 9 -42 21 -8 17 -40 -8 -64 -43 -40 -48
-51 -51 -138 -4 -76 -7 -90 -26 -102 -24 -16 -29 -60 -7 -68 37 -14 39 -181 2
-223 -8 -9 -17 -36 -21 -60 -10 -60 -59 -166 -95 -208 -17 -18 -30 -30 -30
-26 0 4 -17 -9 -37 -29 -103 -96 -200 -134 -326 -124 -133 11 -151 11 -174 3
-19 -7 -25 -4 -35 17 -6 14 -15 26 -20 26 -4 0 -8 -3280 -8 -7290 l0 -7290
14970 0 c10780 0 14970 3 14970 11 0 7 -14 8 -39 4 -32 -5 -41 -3 -53 14 -18
25 -96 40 -108 21 -6 -9 -12 -9 -29 -1 -11 7 -21 16 -21 21 0 6 -7 10 -15 10
-8 0 -15 4 -15 8 0 4 -20 9 -45 10 -25 1 -54 6 -65 12 -10 5 -30 10 -44 10
-14 0 -26 5 -26 10 0 6 -9 10 -20 10 -11 0 -20 3 -20 8 0 4 -17 8 -37 9 -21 1
-39 7 -41 12 -2 6 -17 11 -33 11 -36 0 -109 22 -109 33 0 4 -11 5 -24 1 -13
-3 -27 -1 -30 5 -4 5 -28 13 -54 17 -26 4 -49 10 -52 13 -9 11 -75 33 -115 38
-22 2 -41 9 -43 14 -2 5 -12 9 -23 9 -11 0 -31 7 -44 16 -13 9 -29 13 -35 9
-5 -3 -10 -1 -10 5 0 6 -4 8 -10 5 -5 -3 -10 -2 -10 3 0 5 -11 7 -23 5 -14 -3
-31 2 -40 11 -8 9 -23 16 -31 16 -9 0 -16 5 -16 10 0 6 -9 10 -19 10 -11 0
-23 5 -26 10 -3 6 -25 10 -48 10 -24 0 -56 8 -75 20 -18 11 -41 20 -52 20 -11
0 -20 5 -20 10 0 6 -18 10 -40 10 -22 0 -40 5 -40 10 0 6 -13 10 -30 10 -16 0
-30 4 -30 9 0 5 -25 12 -55 16 -30 3 -57 11 -61 16 -3 6 -13 8 -21 5 -8 -3
-21 1 -29 9 -9 8 -24 15 -35 15 -10 0 -19 4 -19 9 0 8 -42 21 -85 26 -11 2
-45 13 -75 24 -30 12 -66 24 -78 27 -13 3 -49 11 -80 19 -31 8 -62 15 -69 15
-7 0 -29 11 -49 25 -20 14 -47 25 -60 25 -13 0 -24 3 -24 8 0 4 -19 8 -43 9
-45 3 -97 20 -97 33 0 4 -10 8 -22 8 -28 -1 -149 29 -198 47 -19 8 -52 17 -74
20 -21 3 -52 12 -70 20 -17 7 -67 21 -111 30 -44 9 -89 21 -100 26 -11 5 -45
15 -75 23 -124 34 -157 44 -187 59 -18 10 -42 17 -53 17 -12 0 -34 6 -48 14
-15 8 -47 19 -72 26 -101 26 -127 34 -165 51 -40 17 -188 68 -255 87 -19 6
-60 19 -90 30 -30 11 -122 42 -205 68 -82 26 -161 53 -175 61 -14 7 -29 13
-33 13 -4 0 -37 14 -74 31 -36 17 -109 44 -162 61 -53 16 -105 33 -116 38 -63
26 -134 50 -165 55 -41 8 -217 63 -243 76 -10 6 -21 7 -26 5 -4 -3 -32 4 -62
15 -30 11 -70 25 -89 30 -51 14 -88 28 -145 54 -79 35 -437 154 -515 170 -19
4 -39 11 -45 15 -5 4 -29 10 -51 14 -23 3 -75 19 -115 36 -41 16 -83 30 -95
30 -11 0 -24 4 -30 9 -9 9 -195 71 -394 131 -118 36 -554 178 -585 191 -43 18
-252 91 -285 99 -51 13 -121 35 -150 47 -14 6 -41 14 -60 18 -19 4 -47 14 -62
21 -15 8 -36 14 -48 14 -11 0 -20 4 -20 9 0 7 -100 41 -215 73 -22 6 -58 16
-80 23 -22 8 -80 26 -130 41 -49 14 -128 40 -175 56 -47 17 -98 32 -115 35
-16 3 -34 9 -40 13 -5 4 -39 17 -75 30 -36 12 -85 31 -110 42 -25 11 -58 26
-75 33 -52 24 -244 85 -266 85 -21 0 -128 38 -184 65 -41 20 -165 62 -250 85
-38 10 -113 34 -165 52 -52 19 -122 43 -155 54 -33 10 -114 40 -180 67 -66 27
-160 61 -210 77 -161 51 -238 77 -350 118 -60 22 -130 46 -155 52 -25 7 -58
17 -75 24 -16 7 -70 26 -120 43 -49 17 -128 45 -175 63 -47 17 -119 43 -160
57 -41 14 -84 29 -95 33 -87 35 -155 58 -295 100 -41 12 -102 32 -135 45 -33
12 -114 39 -180 59 -163 50 -331 107 -460 155 -27 11 -354 119 -725 241 -371
123 -711 235 -755 251 -44 15 -181 60 -305 99 -124 40 -283 91 -355 116 -185
62 -184 62 -250 80 -33 10 -64 20 -70 24 -18 12 -160 55 -173 52 -7 -2 -25 4
-40 12 -15 8 -43 20 -62 26 -19 7 -44 15 -55 20 -27 10 -102 30 -150 39 -22 4
-56 15 -75 23 -35 15 -126 45 -210 68 -85 24 -488 152 -595 189 -44 15 -159
54 -255 86 -96 31 -179 61 -184 66 -6 5 -17 9 -25 9 -9 0 -99 30 -201 66 -102
36 -205 71 -230 79 -25 8 -92 29 -150 49 -168 56 -566 179 -700 216 -36 10
-108 33 -160 51 -52 17 -108 35 -125 40 -16 4 -122 35 -235 69 -113 34 -218
65 -235 70 -16 4 -106 31 -200 60 -93 29 -190 59 -215 66 -25 7 -58 17 -75 23
-16 6 -151 49 -300 97 -259 82 -560 183 -730 244 -44 15 -150 51 -235 79 -616
203 -674 224 -705 256 -35 37 -36 37 -190 81 -115 33 -235 72 -410 134 -44 15
-134 45 -200 65 -66 21 -142 46 -170 56 -27 10 -95 32 -150 49 -55 17 -109 35
-120 40 -11 5 -56 21 -100 35 -44 14 -89 29 -100 34 -19 9 -108 39 -130 44 -5
2 -25 10 -44 20 -19 9 -42 17 -53 17 -10 0 -18 4 -18 9 0 5 -21 17 -48 26 -26
9 -60 22 -77 29 -70 30 -87 36 -113 36 -16 0 -32 4 -37 8 -6 5 -35 14 -65 21
-65 15 -153 43 -160 52 -10 12 -81 31 -96 25 -8 -3 -34 3 -57 13 -23 10 -58
25 -77 32 -44 16 -100 49 -100 57 0 4 5 14 10 22 9 13 11 13 21 0 8 -11 12
-12 16 -2 6 16 40 16 47 0 5 -10 7 -10 12 0 5 10 9 9 19 -5 11 -15 18 -16 49
-6 31 10 38 9 43 -4 5 -12 7 -12 14 -1 7 11 11 10 19 -2 5 -8 10 -10 10 -5 0
6 4 16 8 23 10 15 43 5 36 -11 -2 -8 9 -13 31 -14 19 -2 35 2 35 7 0 6 5 10
10 10 6 0 10 -9 10 -20 0 -18 7 -20 70 -20 40 0 70 -4 70 -10 0 -5 23 -10 50
-10 28 0 50 -4 50 -10 0 -5 9 -10 19 -10 11 0 21 -5 23 -11 3 -9 10 -9 27 1
26 14 45 11 151 -19 41 -12 93 -24 115 -26 22 -3 60 -11 85 -19 25 -8 71 -22
103 -30 173 -47 292 -84 413 -127 45 -16 88 -29 97 -29 9 0 19 -5 22 -10 3 -6
14 -10 24 -10 10 0 40 -9 67 -19 68 -27 137 -49 219 -70 39 -11 117 -33 175
-50 58 -18 139 -42 180 -54 60 -18 79 -28 95 -53 16 -25 36 -35 110 -58 175
-54 281 -88 340 -111 33 -13 103 -37 155 -53 52 -17 127 -43 165 -57 138 -52
241 -87 277 -96 20 -5 59 -17 85 -28 26 -10 102 -37 168 -59 66 -22 172 -59
235 -82 152 -54 949 -318 1120 -371 74 -22 160 -49 190 -59 30 -11 93 -31 140
-45 188 -58 1189 -386 1985 -650 203 -67 618 -200 750 -240 66 -20 183 -56
260 -80 77 -24 174 -53 215 -65 41 -11 125 -36 185 -55 253 -78 1333 -392
1423 -414 20 -5 109 -30 197 -56 88 -26 187 -54 220 -62 54 -13 287 -86 710
-223 442 -143 677 -216 1410 -440 231 -71 542 -168 690 -215 149 -48 329 -104
400 -125 72 -22 189 -57 260 -80 72 -22 175 -54 230 -71 55 -16 152 -46 215
-65 113 -35 149 -46 505 -159 99 -31 234 -74 300 -95 274 -85 396 -124 505
-160 105 -35 260 -83 570 -177 63 -19 210 -66 325 -104 188 -63 289 -94 380
-119 38 -10 256 -80 355 -114 41 -14 156 -50 255 -81 99 -32 194 -62 210 -68
17 -6 35 -12 40 -14 6 -1 44 -13 85 -28 116 -40 348 -115 420 -135 36 -10 76
-23 90 -28 14 -6 86 -30 160 -53 74 -23 142 -46 150 -51 8 -4 98 -35 200 -69
102 -33 189 -65 194 -70 6 -5 18 -9 29 -9 10 0 62 -14 115 -30 88 -28 220 -68
297 -91 95 -28 199 -64 347 -120 43 -16 84 -29 92 -29 9 0 46 -14 82 -31 37
-16 86 -34 108 -38 38 -8 145 -43 191 -62 11 -5 46 -15 77 -23 31 -8 65 -19
76 -25 11 -6 37 -15 58 -20 55 -14 181 -59 216 -77 16 -8 55 -24 86 -34 31
-10 80 -29 107 -43 78 -38 115 -54 178 -73 32 -9 60 -21 63 -25 3 -5 13 -9 23
-9 10 0 28 -9 41 -20 13 -11 32 -20 43 -20 30 0 154 -39 169 -53 7 -7 29 -13
48 -14 19 -2 36 -7 38 -13 2 -5 16 -10 32 -10 15 0 33 -7 40 -15 7 -8 21 -15
31 -15 11 0 19 -5 19 -11 0 -6 9 -8 20 -4 11 4 20 2 20 -4 0 -6 9 -11 20 -11
11 0 20 -4 20 -8 0 -5 6 -9 13 -9 29 0 140 -38 144 -50 3 -7 18 -13 33 -13 16
0 31 -4 34 -9 3 -4 16 -6 29 -4 15 3 32 -4 50 -21 16 -14 40 -26 54 -26 32 0
93 -21 93 -32 0 -4 11 -8 24 -8 13 0 27 -6 29 -12 4 -10 8 -10 15 1 9 12 13
12 27 -2 9 -9 28 -20 43 -23 54 -12 92 -26 92 -34 0 -8 78 -38 123 -47 15 -3
27 -9 27 -14 0 -5 16 -9 35 -9 19 0 35 -4 35 -10 0 -5 15 -10 34 -10 26 0 36
-5 41 -21 4 -12 12 -18 21 -15 7 3 20 -1 28 -9 8 -8 25 -15 37 -15 12 0 27 -8
34 -17 11 -14 16 -15 28 -5 12 10 18 10 30 -3 9 -8 23 -15 31 -15 9 0 16 -4
16 -8 0 -11 78 -45 108 -46 13 -1 27 -8 33 -16 5 -8 9 -11 9 -5 0 5 5 4 12 -3
7 -7 27 -12 44 -12 18 0 39 -7 48 -15 18 -18 43 -20 49 -2 2 7 8 8 13 3 5 -5
4 -11 -3 -13 -21 -8 -14 -26 7 -20 13 3 20 0 20 -9 0 -8 10 -14 25 -14 14 0
28 -7 31 -15 4 -10 13 -13 25 -10 14 5 29 -5 55 -32 32 -33 37 -36 45 -20 10
17 49 24 49 9 0 -20 53 -62 79 -62 15 0 38 -9 51 -20 13 -11 35 -23 49 -27 14
-3 34 -16 45 -27 13 -15 20 -17 23 -8 7 19 23 14 23 -8 0 -22 35 -29 43 -7 2
7 20 -5 45 -31 22 -23 46 -42 52 -42 30 0 54 -53 28 -63 -7 -2 -9 -8 -5 -13 4
-5 13 -2 18 6 8 11 12 12 16 3 4 -10 824 -13 4054 -13 l4049 0 -2 3788 -3
3787 -28 46 c-15 26 -39 59 -52 74 -31 33 -34 85 -12 225 22 133 31 165 64
213 l28 42 3 3553 c1 2058 -2 3552 -7 3552 -5 0 -14 -7 -21 -16 -20 -23 -79
-14 -102 16 -16 21 -17 33 -9 75 10 54 46 94 109 121 l32 14 0 165 c0 140 -3
174 -20 222 -11 32 -20 79 -20 106 0 28 8 65 20 89 19 40 20 62 20 668 0 345
-3 629 -6 633 -3 3 -14 2 -23 -3 -9 -5 -54 -24 -101 -41 -47 -17 -98 -37 -115
-45 -44 -19 -141 -54 -162 -59 -23 -6 -82 -25 -253 -82 -74 -25 -155 -51 -180
-59 -25 -8 -58 -22 -73 -30 -16 -7 -35 -14 -42 -14 -15 0 -164 -58 -180 -70
-5 -4 -44 -19 -86 -33 -74 -25 -180 -65 -339 -128 -42 -16 -96 -36 -120 -44
-52 -16 -267 -93 -355 -127 -56 -22 -228 -113 -305 -163 -19 -12 -69 -41 -110
-64 -68 -38 -160 -100 -201 -135 -9 -7 -36 -25 -60 -40 -24 -14 -55 -36 -69
-49 -14 -12 -35 -30 -47 -38 -17 -12 -74 -63 -196 -177 -18 -17 -60 -71 -95
-122 -65 -97 -168 -234 -207 -275 -75 -80 -144 -173 -179 -242 -58 -117 -77
-113 -52 12 45 224 107 343 285 544 371 419 776 683 1359 885 57 20 116 36
131 36 14 0 42 11 61 23 32 22 117 55 313 123 38 13 88 24 112 24 32 0 52 7
73 25 28 23 245 115 273 115 7 0 41 16 76 36 39 21 104 45 166 60 56 14 126
34 155 44 28 11 76 29 105 39 28 10 102 38 162 61 61 23 135 51 165 62 30 11
70 26 88 34 l32 14 0 230 c0 221 -1 230 -20 230 -10 0 -23 -7 -28 -17 -9 -14
-15 -15 -56 -3 -25 7 -43 16 -41 21 3 4 37 18 75 30 l70 23 0 241 c0 133 -3
245 -7 248 -3 4 -13 2 -20 -5 -11 -9 -16 -9 -23 1 -9 16 -53 8 -90 -17 -27
-18 -67 -34 -145 -58 -27 -9 -66 -22 -85 -29 -19 -8 -50 -16 -69 -19 -19 -4
-43 -14 -53 -23 -19 -17 -35 -24 -148 -63 -36 -12 -78 -28 -95 -36 -51 -24
-145 -54 -267 -85 -76 -19 -138 -42 -175 -64 -31 -19 -68 -35 -82 -35 -15 0
-47 -11 -73 -25 -26 -14 -60 -25 -75 -25 -15 0 -48 -11 -72 -25 -23 -14 -55
-25 -70 -25 -14 -1 -44 -12 -66 -25 -55 -34 -62 -37 -208 -89 -71 -25 -139
-46 -152 -46 -13 0 -46 -11 -73 -25 -57 -28 -123 -33 -142 -10 -7 9 -11 17 -9
20 3 2 63 25 134 51 72 25 177 63 235 84 149 53 447 161 635 230 147 54 298
108 957 347 l237 86 1 1505 0 1504 -24 -6 c-18 -4 -25 -1 -29 14 -5 20 -13 20
-1624 17 -890 -2 -1632 -7 -1650 -11 -18 -5 -35 -16 -38 -26 -7 -21 -91 -74
-104 -66 -4 3 -23 -6 -42 -19 -19 -15 -40 -23 -51 -19 -10 3 -18 1 -18 -5 0
-6 -18 -11 -39 -11 -22 0 -41 -5 -44 -12 -2 -8 -8 -9 -13 -4 -5 5 -4 11 4 13
16 6 16 40 0 45 -10 4 -9 8 2 19 35 33 98 69 122 69 14 0 31 7 38 15 11 13
-198 15 -1871 15 l-1884 -1 -34 -49z m5360 -117 c-26 -76 -68 -176 -93 -223
-53 -99 -76 -112 -143 -80 -22 11 -55 23 -73 26 -31 6 -33 9 -26 38 3 17 6 33
6 36 1 31 -5 51 -17 64 -8 8 -15 26 -15 39 0 27 63 159 83 174 6 5 45 19 85
32 62 19 80 21 125 12 62 -12 89 -11 100 7 19 28 12 5 -32 -125z m-2736 -168
c38 -37 44 -51 20 -41 -8 3 -26 -5 -39 -17 -13 -12 -31 -28 -39 -34 -17 -14
-87 -41 -127 -50 -14 -3 -32 -11 -40 -18 -8 -7 -26 -16 -40 -19 -40 -11 -74
-29 -92 -49 -9 -11 -21 -16 -26 -13 -5 3 -17 -3 -27 -14 -9 -10 -23 -16 -31
-13 -8 3 -23 -4 -33 -16 -11 -12 -27 -23 -38 -25 -10 -2 -38 -12 -63 -21 -25
-9 -54 -18 -65 -20 -11 -1 -27 -5 -35 -8 -25 -9 -120 -16 -135 -10 -20 7 -19
59 0 67 8 3 15 11 15 19 0 7 19 24 43 37 23 13 45 28 49 34 4 6 8 7 8 3 0 -4
11 3 24 17 13 15 26 26 30 26 4 0 24 11 44 25 20 14 44 25 54 25 9 0 29 6 45
14 15 8 39 19 53 24 14 5 54 21 90 36 36 14 76 26 91 26 14 0 30 5 37 12 6 6
50 14 97 16 47 2 85 8 85 13 0 15 10 10 45 -26z m752 -253 c51 -26 53 -29 53
-68 0 -75 -74 -266 -113 -291 -33 -21 -77 -30 -87 -18 -5 6 -28 17 -51 24 -22
7 -54 25 -71 41 -31 30 -32 37 -12 108 5 18 2 22 -15 22 -28 0 -27 13 8 85 27
58 65 104 77 93 3 -4 31 5 62 17 64 27 75 26 149 -13z m-2637 -352 c0 -11 -4
-20 -10 -20 -5 0 -10 -7 -10 -16 0 -15 -23 -44 -34 -44 -3 0 -6 10 -7 23 l0
22 -11 -22 c-6 -13 -19 -23 -30 -23 -10 0 -18 -4 -18 -10 0 -5 -13 -10 -28
-10 -21 0 -32 -7 -40 -26 -7 -14 -16 -23 -21 -20 -5 4 -11 2 -13 -2 -1 -5 -31
-23 -65 -40 -46 -23 -80 -33 -130 -36 -37 -2 -76 -7 -85 -11 -10 -4 -18 -3
-18 2 0 15 31 53 43 53 7 0 21 14 32 30 13 20 27 30 40 28 10 -2 29 7 42 20
13 13 34 22 52 22 19 0 35 8 44 20 25 35 167 78 167 50 0 -18 35 -11 50 10 8
11 22 20 32 20 11 0 18 -7 18 -20z m1027 -27 c38 -24 49 -37 57 -68 19 -80
-37 -217 -110 -268 -40 -28 -42 -29 -85 -14 -136 47 -149 62 -120 134 17 43
19 103 3 103 -3 0 -14 -7 -24 -17 -25 -22 -29 -15 -13 30 17 48 62 108 78 101
7 -2 30 5 52 16 51 27 99 22 162 -17z m-1570 -465 c44 -27 53 -37 58 -69 13
-77 -6 -145 -65 -233 -41 -60 -74 -71 -143 -47 -102 36 -114 42 -126 67 -19
42 -13 60 29 88 37 24 52 50 48 86 0 8 0 34 0 57 2 37 7 46 40 68 46 32 84 28
159 -17z m5653 -100 c-19 -12 -52 -30 -73 -40 -46 -21 -255 -145 -324 -191
-72 -48 -229 -176 -299 -243 -78 -75 -121 -136 -184 -268 -29 -58 -64 -121
-79 -140 -15 -19 -47 -64 -71 -100 -23 -36 -46 -66 -51 -66 -5 0 -14 9 -21 20
-7 11 -19 20 -26 20 -7 0 -15 14 -18 30 -4 17 -10 30 -14 30 -15 0 10 102 40
165 36 76 71 112 203 214 53 41 129 109 170 150 144 150 377 310 542 372 11 4
43 17 70 29 41 18 93 31 160 39 6 0 -6 -9 -25 -21z m-7022 -320 c13 -13 16
-96 5 -149 -6 -33 -92 -129 -114 -129 -5 0 -23 10 -39 21 -16 12 -35 19 -43
16 -9 -3 -19 4 -26 19 -6 13 -18 24 -26 24 -12 0 -15 8 -13 27 4 33 72 85 103
79 11 -3 30 4 43 14 27 22 28 30 3 30 -18 0 -37 27 -26 38 3 3 5 0 5 -6 0 -19
39 -14 62 8 25 23 48 26 66 8z m4422 -316 c0 -5 -17 -20 -37 -33 -48 -32 -162
-111 -233 -162 -30 -22 -93 -80 -140 -128 -74 -76 -93 -104 -146 -211 -60
-119 -143 -244 -170 -255 -7 -3 -27 5 -43 16 -16 12 -33 21 -38 21 -5 0 -19
24 -31 53 -21 50 -21 56 -7 96 22 62 103 171 127 171 26 0 175 86 212 122 24
24 63 59 87 78 24 19 50 42 57 52 13 17 64 55 115 85 11 6 22 15 26 20 3 5 35
26 71 46 46 26 77 37 108 37 23 0 42 -4 42 -8z m-7010 -208 c0 -9 9 -25 21
-35 19 -17 20 -20 5 -34 -9 -9 -16 -21 -16 -26 0 -5 -7 -9 -15 -9 -8 0 -15 -5
-15 -11 0 -7 -7 -8 -17 -4 -10 4 -35 11 -56 16 -22 5 -45 16 -53 23 -7 8 -19
16 -26 18 -19 7 0 27 50 53 56 29 122 34 122 9z m-1116 -344 c35 -39 47 -70
26 -70 -5 0 -10 -7 -10 -15 0 -8 -9 -15 -19 -15 -11 0 -22 -6 -25 -12 -5 -10
-7 -10 -12 0 -3 6 -19 12 -35 12 -16 0 -29 4 -29 10 0 5 -13 7 -29 4 -16 -4
-32 -1 -35 5 -4 6 -12 8 -18 5 -6 -4 -14 -1 -18 7 -7 10 -14 10 -34 1 -23 -10
-26 -9 -26 8 0 10 11 31 24 46 19 22 33 28 67 29 24 1 51 4 59 7 60 25 73 23
114 -22z m5460 -272 c18 -17 -115 -276 -175 -343 -28 -30 -55 -55 -60 -55 -6
0 -34 16 -64 35 -41 26 -55 41 -55 58 0 13 -7 32 -15 43 -20 26 -19 41 9 100
39 84 76 118 148 137 35 9 80 19 101 21 21 2 43 8 50 15 11 11 42 6 61 -11z
m-3924 -332 c0 -7 -12 -16 -28 -19 -15 -3 -38 -15 -52 -27 -18 -16 -34 -21
-59 -18 -25 3 -35 0 -38 -12 -3 -11 -15 -17 -36 -17 -17 0 -33 -5 -35 -11 -2
-7 -23 -12 -48 -12 -24 0 -44 -3 -44 -7 0 -9 -49 -33 -67 -33 -7 0 -13 -4 -13
-10 0 -5 -13 -10 -30 -10 -16 0 -30 -4 -30 -9 0 -6 -18 -9 -40 -8 -53 2 -46
20 13 31 26 5 47 13 47 18 0 4 14 8 30 8 17 0 30 5 30 10 0 6 9 10 19 10 11 0
23 5 26 10 3 6 22 10 41 10 19 0 34 5 34 10 0 6 9 10 20 10 11 0 28 4 38 9 37
20 89 39 122 46 19 4 46 13 60 21 32 17 40 17 40 0z m1961 -115 c8 -1 23 -17
32 -36 16 -35 16 -35 -28 -131 -48 -103 -89 -161 -136 -195 l-30 -21 -64 27
c-60 25 -63 28 -75 73 -6 26 -16 52 -22 59 -15 19 -2 73 32 127 22 34 43 53
78 68 68 31 104 36 213 29z m1720 -22 c31 -33 32 -38 29 -109 -1 -35 -8 -52
-33 -77 -33 -35 -61 -42 -71 -18 -3 8 -14 15 -23 15 -10 0 -28 7 -40 15 -18
13 -21 22 -16 48 3 18 10 40 15 50 11 21 -5 23 -22 2 -12 -14 -40 -21 -40 -10
0 3 9 23 20 44 15 30 30 43 62 54 65 23 87 21 119 -14z m4169 -182 c0 -17 -33
-36 -110 -62 -36 -13 -141 -50 -235 -82 -172 -61 -259 -81 -252 -60 5 16 82
54 147 72 30 9 64 20 75 25 55 24 155 60 168 60 9 0 37 10 64 21 83 37 143 48
143 26z m2628 -53 c39 -11 23 -24 -22 -18 -37 6 -46 3 -55 -13 -7 -15 -24 -22
-67 -26 -32 -3 -64 -13 -75 -23 -23 -21 -24 -34 -4 -34 8 0 15 -4 15 -10 0 -5
-15 -10 -32 -10 -18 0 -45 -6 -60 -14 -18 -9 -29 -11 -36 -4 -6 6 -26 8 -46 4
-25 -5 -41 -16 -56 -41 -21 -35 -43 -44 -55 -25 -11 19 -84 12 -102 -10 -10
-11 -26 -20 -35 -20 -29 0 -159 -38 -174 -51 -8 -6 -14 -18 -14 -26 0 -7 -8
-16 -17 -20 -10 -3 -26 -13 -37 -22 -18 -15 -18 -15 -12 7 6 18 4 22 -16 22
-27 0 -107 -23 -140 -41 -13 -6 -38 -27 -56 -45 -18 -19 -42 -34 -53 -34 -12
0 -33 -6 -47 -14 -35 -18 -106 -47 -112 -46 -3 1 -18 -4 -35 -10 -16 -7 -82
-30 -145 -52 -63 -21 -124 -43 -135 -48 -11 -4 -36 -13 -55 -20 -19 -7 -48
-18 -65 -25 -64 -26 -114 -41 -170 -52 -10 -2 -22 -8 -25 -13 -4 -6 -37 -19
-74 -29 -38 -10 -81 -28 -97 -40 -15 -11 -34 -18 -42 -15 -8 3 -34 -4 -58 -15
-24 -11 -59 -23 -77 -26 -40 -8 -82 -29 -94 -47 -7 -10 -11 -9 -22 5 -18 24
-24 22 -28 -10 -3 -26 -6 -28 -48 -28 -25 0 -55 -6 -67 -13 -12 -7 -26 -12
-32 -12 -19 0 -12 27 12 43 21 14 19 15 -28 10 -27 -3 -48 -3 -45 0 3 3 51 22
105 41 55 19 154 53 220 76 66 23 215 75 330 115 116 40 298 105 405 143 107
39 299 107 425 152 294 104 376 133 478 169 322 116 487 171 508 171 13 0 42
12 64 25 41 25 63 29 103 19z m-10173 -163 c41 -22 45 -29 45 -81 0 -73 -29
-139 -90 -202 -63 -65 -77 -69 -155 -39 -51 19 -83 59 -85 105 0 11 -7 28 -16
38 -16 17 -15 22 15 83 33 67 46 78 121 106 52 19 119 15 165 -10z m8085 -13
c0 -23 -43 -58 -71 -58 -15 0 -40 -11 -56 -24 -41 -34 -68 -46 -103 -46 -39 0
-93 -23 -133 -56 -26 -22 -37 -25 -70 -20 -29 5 -51 1 -81 -13 -58 -28 -153
-42 -167 -25 -9 11 -7 15 7 20 11 3 28 10 39 15 19 8 250 91 305 109 14 5 63
23 110 40 180 68 220 79 220 58z m-9538 -332 c31 -20 33 -26 36 -85 2 -48 -2
-73 -18 -107 -24 -48 -103 -124 -130 -124 -9 0 -43 11 -75 24 -52 21 -59 27
-72 66 -11 31 -12 49 -4 64 16 33 30 96 21 96 -5 0 -17 -12 -28 -27 -30 -41
-37 -22 -12 29 30 57 49 78 67 71 8 -3 18 -2 22 3 3 5 22 16 41 25 31 14 40
15 77 2 24 -8 57 -25 75 -37z m8261 -162 c15 -3 27 -10 27 -15 0 -5 -12 -11
-27 -15 -52 -11 -148 -42 -248 -79 -55 -20 -162 -59 -238 -85 -76 -27 -143
-53 -150 -58 -7 -5 -37 -13 -69 -16 -52 -7 -57 -6 -63 15 -4 13 -2 26 6 34 8
7 86 37 174 68 165 58 364 129 425 153 33 12 89 12 163 -2z m-9643 -81 c10
-20 24 -33 41 -37 50 -10 59 -29 55 -119 l-4 -81 -55 -53 c-64 -61 -80 -64
-159 -29 -52 23 -55 27 -61 66 -4 31 0 50 14 74 10 17 19 39 19 49 0 9 4 17 9
17 15 0 22 30 11 48 -5 10 -10 13 -10 8 0 -5 -7 -3 -15 4 -13 10 -19 10 -35
-5 -11 -10 -20 -15 -20 -11 0 14 41 66 49 62 4 -3 30 6 57 19 62 31 85 28 104
-12z m7559 -179 c14 -14 -45 -43 -186 -92 -161 -56 -270 -77 -261 -51 8 24 67
51 222 105 110 38 161 51 186 47 19 -3 37 -7 39 -9z m2723 -29 c-5 -30 9 -32
61 -10 23 9 38 11 42 5 14 -22 -5 -30 -105 -47 -19 -3 -42 -11 -50 -18 -8 -7
-62 -27 -119 -45 -57 -17 -124 -41 -150 -52 -25 -11 -62 -24 -81 -28 -19 -5
-60 -18 -90 -30 -30 -12 -75 -28 -100 -36 -25 -9 -57 -22 -72 -30 -14 -8 -35
-14 -45 -14 -10 0 -23 -4 -28 -9 -15 -15 -166 -62 -176 -55 -5 3 -8 0 -7 -7 2
-8 -17 -17 -50 -25 -29 -6 -58 -17 -65 -22 -6 -6 -41 -18 -77 -27 -35 -9 -96
-29 -135 -45 -38 -16 -91 -34 -117 -41 -27 -8 -48 -17 -48 -22 0 -4 -5 -5 -11
-2 -10 7 -51 -9 -112 -40 -16 -8 -39 -15 -52 -15 -13 0 -59 -13 -102 -30 -42
-16 -84 -30 -91 -30 -8 0 -27 -11 -43 -25 -18 -14 -36 -22 -46 -18 -9 4 -19
-1 -25 -10 -5 -10 -17 -17 -27 -17 -10 0 -32 -7 -47 -15 -17 -9 -40 -13 -56
-9 -20 4 -28 2 -28 -8 0 -16 -49 -38 -158 -72 -45 -14 -100 -35 -122 -46 -21
-11 -44 -20 -49 -20 -15 0 -146 -62 -149 -70 -2 -5 -29 -18 -61 -30 -31 -11
-69 -32 -84 -46 -14 -13 -33 -24 -42 -24 -8 0 -38 -16 -66 -35 -27 -20 -61
-40 -74 -45 -23 -9 -152 -100 -204 -144 -14 -12 -51 -47 -83 -79 -32 -32 -64
-60 -73 -61 -19 -3 -95 -77 -95 -94 0 -7 -7 -15 -15 -18 -8 -4 -15 -11 -15
-18 0 -6 -20 -34 -45 -63 -25 -28 -45 -56 -45 -61 0 -6 -14 -22 -32 -37 -24
-21 -28 -29 -18 -35 11 -7 11 -11 1 -24 -8 -9 -18 -16 -23 -16 -12 0 -198
-190 -198 -202 0 -4 -8 -27 -19 -51 -10 -23 -27 -69 -37 -102 -10 -33 -24 -69
-31 -80 -43 -65 48 239 117 389 61 137 113 211 260 375 160 179 417 370 675
502 167 86 245 118 550 228 138 49 298 108 357 130 59 23 219 79 355 127 137
47 338 117 448 156 110 38 211 73 225 78 14 4 90 31 170 60 80 28 219 78 310
110 91 32 199 71 240 88 93 37 88 37 82 7z m-1710 -77 l51 -22 -23 -18 c-12
-10 -29 -18 -36 -18 -25 0 -262 -79 -414 -137 -80 -31 -172 -66 -205 -79 -91
-34 -324 -115 -375 -129 -25 -7 -70 -23 -100 -35 -30 -12 -116 -44 -190 -70
-74 -26 -245 -89 -380 -140 -135 -50 -272 -99 -305 -110 -33 -10 -136 -46
-230 -80 -93 -34 -235 -84 -315 -112 -80 -27 -158 -56 -175 -63 -16 -7 -63
-26 -104 -44 -40 -17 -78 -31 -83 -31 -21 0 -459 -173 -510 -202 -13 -7 -41
-19 -63 -28 -104 -39 -386 -209 -477 -287 -31 -26 -93 -79 -138 -118 -73 -62
-170 -177 -170 -202 0 -5 -18 -26 -39 -47 -21 -21 -49 -57 -60 -80 -12 -23
-36 -50 -54 -59 -30 -17 -58 -53 -122 -156 -19 -30 -30 -40 -37 -33 -8 8 -8
20 -1 39 6 15 16 51 22 79 17 70 49 149 96 230 45 76 240 280 367 383 148 119
390 261 598 351 41 18 93 40 115 50 22 10 67 26 100 36 33 10 69 26 81 36 11
10 30 18 42 18 28 0 111 27 277 92 72 27 153 58 180 68 28 10 93 34 145 53 52
20 111 39 130 42 19 4 47 14 62 21 32 16 140 57 358 134 91 32 208 74 260 93
52 19 185 67 295 107 110 39 263 94 339 122 120 43 144 49 172 40 36 -11 46
-7 63 26 6 12 19 22 27 22 9 0 24 10 34 23 18 21 20 21 36 5 17 -17 17 -18 -1
-38 -26 -29 -13 -34 20 -8 36 28 121 68 145 68 10 0 34 15 52 34 23 24 60 44
123 66 149 53 278 100 315 114 47 19 44 19 102 -6z m-9710 -91 c12 -10 16 -28
15 -79 -2 -62 -5 -70 -36 -102 -41 -43 -60 -50 -94 -37 -23 9 -26 15 -21 39 4
21 2 31 -10 35 -19 8 -12 55 10 73 8 6 14 16 14 22 0 8 85 61 100 61 3 0 12
-5 22 -12z m8069 -7 c5 0 9 -6 9 -12 0 -14 -97 -56 -211 -93 -41 -13 -141 -49
-224 -81 -82 -31 -247 -90 -364 -130 -254 -87 -336 -98 -248 -32 30 23 93 49
232 96 33 12 103 36 155 55 132 47 276 95 335 111 28 8 102 33 165 55 63 23
121 39 128 36 8 -3 18 -5 23 -5z m-10265 -333 l64 -64 0 -68 0 -69 -50 -47
c-27 -26 -50 -50 -50 -53 0 -13 16 -5 47 24 34 32 53 38 53 17 0 -15 -35 -49
-93 -92 -33 -24 -41 -26 -60 -16 -12 7 -32 13 -45 14 -12 0 -22 4 -22 8 0 4
-8 5 -19 2 -24 -6 -39 17 -20 31 21 16 79 104 79 120 0 18 -48 36 -90 33 -31
-2 -35 1 -33 20 2 19 -1 21 -32 17 l-35 -4 17 42 c33 84 31 83 158 129 28 9
54 18 58 18 5 1 38 -28 73 -62z m9144 -72 c7 -9 11 -18 8 -20 -2 -3 -94 -36
-204 -75 -109 -38 -219 -77 -244 -86 -25 -9 -88 -31 -140 -49 -52 -18 -167
-59 -255 -90 -88 -31 -257 -90 -375 -131 -118 -41 -237 -84 -265 -94 -27 -11
-111 -40 -185 -65 -229 -78 -532 -182 -605 -209 -38 -14 -79 -26 -91 -26 -12
0 -43 -12 -69 -26 -27 -14 -78 -36 -114 -48 -137 -48 -298 -109 -346 -131 -27
-13 -79 -37 -115 -54 -183 -84 -341 -188 -497 -325 -84 -73 -133 -126 -164
-173 -65 -101 -239 -303 -261 -303 -7 0 -11 55 -9 150 1 61 50 157 109 216 39
39 91 82 212 177 8 7 34 27 56 45 23 17 45 32 48 32 4 0 33 17 64 39 177 119
368 213 613 301 96 35 209 75 251 90 43 16 96 31 118 35 23 4 70 22 106 41 36
19 72 34 80 34 8 0 56 15 107 34 50 19 119 43 152 54 33 11 105 36 160 57 55
20 152 54 215 75 63 22 185 65 270 96 85 31 200 71 255 90 55 18 159 54 230
80 72 25 184 63 250 85 66 21 147 49 180 61 33 12 110 38 170 59 61 20 126 44
145 53 46 20 124 21 140 1z m-2180 -374 c0 -11 -43 -28 -270 -104 -189 -64
-236 -77 -244 -69 -10 9 15 32 35 32 11 0 19 4 19 8 0 5 23 15 50 22 28 7 50
17 50 22 0 4 11 8 24 8 20 0 61 10 106 27 146 55 230 75 230 54z m-691 -237
c8 -7 -6 -14 -80 -39 -41 -14 -83 -30 -94 -35 -11 -5 -78 -29 -150 -53 -115
-39 -241 -83 -385 -134 -25 -9 -58 -19 -75 -24 -16 -4 -68 -22 -115 -39 -47
-17 -128 -47 -180 -65 -250 -87 -330 -115 -393 -139 -71 -27 -111 -33 -105
-15 4 12 75 50 128 69 19 7 64 23 100 36 36 13 75 23 87 24 41 0 152 41 184
67 9 7 61 25 115 38 105 27 154 45 154 57 0 5 14 8 30 8 17 0 30 5 30 10 0 6
11 10 25 10 15 0 40 7 57 16 33 17 59 26 146 50 30 8 63 21 74 28 11 8 26 12
33 10 7 -3 39 8 72 25 32 17 80 32 107 35 27 2 79 20 119 40 64 31 97 37 116
20z m-1823 -624 c8 0 14 -6 14 -13 0 -8 -52 -34 -122 -62 -361 -143 -688 -361
-798 -529 -21 -34 -84 -108 -139 -166 l-99 -105 -11 27 c-6 15 -15 62 -20 105
-11 87 -5 108 50 184 46 62 90 98 179 146 41 22 124 72 184 111 129 85 309
175 375 188 17 4 34 11 37 15 3 5 15 9 28 9 12 0 31 7 42 15 10 8 26 15 34 15
8 0 28 7 44 15 15 8 36 15 45 15 9 0 39 9 66 19 28 11 56 17 63 15 8 -2 20 -4
28 -4z m8618 -161 l39 -11 -24 -23 c-13 -12 -55 -43 -93 -69 -76 -51 -96 -50
-88 6 7 45 27 73 65 92 38 19 50 19 101 5z m-11654 -118 c0 -5 -8 -11 -17 -14
-30 -9 -116 -43 -153 -60 -72 -33 -113 -47 -136 -47 -13 0 -24 -3 -24 -8 0 -4
-19 -12 -42 -19 -51 -13 -171 -56 -178 -63 -9 -9 -54 -28 -95 -41 -22 -6 -56
-20 -76 -30 -20 -11 -45 -16 -58 -12 -13 3 -26 1 -30 -5 -7 -11 -61 -4 -61 8
0 15 224 115 246 110 4 -1 10 3 13 9 4 6 38 18 77 27 86 20 124 34 124 45 0 5
7 9 15 9 9 0 28 6 43 14 15 8 38 16 52 17 14 2 27 7 31 11 7 11 191 46 207 41
6 -3 12 0 12 6 0 6 11 11 25 11 14 0 25 -4 25 -9z m874 -167 c14 -5 13 -10 -6
-31 -23 -24 -109 -84 -138 -95 -17 -7 -124 -85 -192 -141 -26 -21 -83 -82
-126 -135 -44 -54 -99 -116 -123 -138 -24 -23 -54 -53 -66 -68 -32 -36 -53
-34 -53 7 0 17 -7 41 -15 51 -8 11 -15 32 -15 47 0 15 -4 39 -9 52 -13 34 17
95 79 161 62 65 107 89 177 92 55 2 129 31 174 69 14 12 51 34 82 49 31 15 59
31 62 37 4 5 16 9 28 9 12 0 36 9 52 19 31 20 62 25 89 15z m-1684 -235 c0
-19 -22 -51 -35 -49 -12 1 -31 -26 -27 -38 2 -6 -3 -15 -11 -18 -21 -8 -91
-70 -140 -124 -23 -25 -77 -81 -122 -125 -45 -44 -94 -98 -111 -120 -46 -63
-74 -74 -74 -29 0 14 -4 33 -9 42 -5 10 -16 57 -24 106 -15 85 -15 91 3 126
52 103 139 156 269 165 56 4 99 13 139 31 31 14 67 26 79 26 13 0 28 7 34 14
17 20 29 17 29 -7z m12473 -148 c14 -14 -55 -45 -228 -101 -71 -23 -148 -49
-170 -57 -22 -8 -92 -32 -155 -53 -63 -21 -180 -61 -260 -90 -80 -29 -183 -65
-230 -80 -47 -16 -137 -47 -200 -70 -63 -23 -173 -62 -245 -85 -71 -24 -188
-65 -260 -91 -71 -25 -238 -84 -370 -130 -132 -46 -298 -104 -370 -130 -71
-25 -161 -57 -200 -70 -38 -13 -79 -28 -90 -34 -22 -10 -381 -139 -645 -230
-91 -32 -237 -83 -325 -115 -88 -31 -189 -67 -225 -80 -355 -125 -447 -157
-520 -185 -47 -17 -143 -51 -215 -75 -119 -40 -375 -130 -583 -204 -46 -16
-86 -32 -89 -35 -4 -3 -15 -6 -25 -6 -11 0 -47 -11 -81 -24 -98 -38 -272 -100
-392 -141 -60 -20 -198 -68 -305 -105 -107 -38 -235 -83 -285 -100 -49 -17
-103 -35 -120 -41 -16 -6 -59 -20 -95 -31 -36 -12 -105 -35 -155 -53 -49 -18
-142 -50 -205 -70 -63 -21 -137 -47 -164 -57 -45 -17 -51 -17 -73 -2 -36 23
-65 15 -75 -22 -7 -29 -14 -32 -125 -66 -65 -20 -156 -50 -203 -68 -117 -44
-125 -45 -149 -21 -12 12 -28 21 -36 21 -17 0 -34 -29 -32 -55 2 -16 -38 -33
-283 -115 -269 -91 -430 -149 -475 -171 -11 -5 -166 -58 -345 -118 -179 -60
-343 -116 -365 -124 -22 -8 -161 -54 -310 -102 -148 -48 -315 -102 -370 -122
-55 -19 -136 -47 -180 -61 -44 -14 -113 -38 -153 -54 -41 -16 -97 -36 -125
-45 -29 -8 -69 -22 -91 -30 -21 -7 -104 -36 -185 -63 -80 -27 -245 -83 -366
-125 -121 -42 -368 -125 -550 -185 -181 -60 -364 -121 -405 -136 -41 -14 -122
-41 -180 -59 -58 -18 -157 -50 -220 -70 -63 -21 -144 -45 -180 -55 -36 -10
-103 -32 -150 -50 -47 -17 -150 -53 -230 -80 -80 -26 -197 -67 -260 -90 -63
-23 -126 -45 -140 -50 -14 -4 -119 -46 -235 -93 -280 -113 -425 -189 -595
-316 -41 -31 -88 -64 -105 -75 -35 -21 -172 -159 -230 -231 -22 -27 -46 -56
-53 -65 -48 -57 -100 -127 -115 -156 -17 -34 -34 -40 -72 -25 -15 6 -29 1 -55
-22 -54 -48 -50 -15 18 125 67 140 123 214 302 400 140 147 188 181 420 297
207 105 343 164 500 219 206 73 768 262 920 309 487 153 1874 614 1928 642 20
10 58 21 83 24 26 4 96 25 155 48 60 22 403 140 763 260 590 197 661 219 720
219 47 0 74 5 91 17 13 9 51 20 83 24 37 4 72 16 97 33 45 30 65 33 78 10 6
-10 19 -14 38 -12 26 3 29 7 27 34 -2 21 4 37 20 51 23 21 640 233 680 233 12
1 33 7 47 15 14 7 37 11 53 8 23 -5 34 0 50 19 17 20 73 43 235 97 117 39 223
71 235 71 12 0 32 6 43 14 11 8 126 50 255 94 129 44 347 119 484 167 138 47
315 108 395 135 80 27 276 94 435 150 160 56 360 126 445 155 85 29 236 82
335 117 99 36 252 89 340 118 88 29 176 59 195 67 19 8 136 50 260 93 259 90
510 178 900 315 475 167 685 239 1015 349 176 59 329 111 340 116 11 4 29 11
40 13 20 6 418 142 690 237 377 132 494 173 550 189 33 11 85 29 115 41 30 12
80 31 110 40 50 17 175 62 260 95 40 16 156 13 173 -4z m1765 -188 c-2 -10
-28 -25 -66 -39 -35 -12 -69 -27 -75 -31 -19 -14 -115 -35 -127 -28 -5 3 -10
2 -10 -4 0 -6 -18 -15 -40 -21 -21 -6 -42 -15 -45 -20 -3 -6 -16 -10 -29 -10
-12 0 -26 -4 -31 -9 -6 -5 -71 -32 -145 -61 -74 -29 -139 -57 -144 -61 -6 -5
-20 -9 -33 -9 -12 0 -46 -11 -75 -24 -72 -33 -260 -106 -388 -151 -58 -20
-125 -45 -150 -56 -52 -22 -87 -35 -260 -95 -69 -24 -134 -48 -145 -54 -11 -5
-38 -16 -60 -24 -22 -8 -85 -31 -140 -51 -55 -20 -125 -45 -155 -55 -30 -10
-127 -45 -215 -78 -88 -33 -214 -78 -280 -101 -66 -22 -154 -55 -195 -72 -41
-17 -118 -46 -170 -64 -52 -18 -126 -45 -165 -60 -79 -30 -190 -70 -250 -90
-22 -7 -105 -37 -185 -65 -80 -28 -156 -55 -170 -60 -29 -9 -126 -46 -155 -60
-158 -71 -292 -120 -327 -120 -10 0 -87 -25 -171 -56 -192 -71 -349 -128 -452
-164 -44 -16 -118 -42 -165 -60 -47 -17 -128 -46 -180 -65 -52 -18 -120 -43
-150 -54 -198 -72 -350 -124 -431 -146 -52 -15 -124 -40 -162 -56 -84 -37
-478 -179 -552 -199 -16 -5 -109 -36 -205 -70 -301 -106 -463 -161 -525 -179
-104 -31 -218 -73 -260 -94 -22 -11 -56 -24 -75 -28 -19 -5 -114 -36 -210 -69
-96 -34 -220 -73 -274 -86 -57 -14 -137 -43 -185 -68 -75 -38 -249 -103 -361
-135 -33 -9 -217 -72 -700 -241 -113 -40 -248 -87 -300 -105 -52 -18 -126 -45
-165 -60 -38 -14 -124 -46 -190 -69 -66 -24 -185 -67 -265 -96 -159 -58 -379
-135 -480 -170 -158 -55 -256 -88 -275 -93 -11 -4 -78 -27 -150 -52 -71 -25
-143 -50 -160 -54 -16 -5 -77 -25 -135 -45 -58 -21 -112 -39 -120 -41 -109
-27 -543 -170 -820 -270 -102 -36 -216 -78 -255 -91 -38 -14 -104 -38 -145
-54 -41 -15 -113 -42 -160 -60 -166 -62 -383 -164 -625 -295 -105 -57 -210
-132 -315 -225 -41 -36 -95 -81 -120 -100 -99 -77 -251 -257 -317 -374 -7 -12
-25 -29 -40 -37 -15 -8 -30 -17 -33 -20 -23 -28 -97 -38 -106 -15 -19 49 82
279 172 391 31 39 69 98 85 131 54 113 175 218 349 304 58 28 113 55 123 61
204 113 474 225 802 334 55 19 183 63 285 100 183 65 495 168 745 247 72 23
186 60 255 83 69 24 195 66 280 93 116 38 683 230 840 285 8 3 71 23 140 46
69 22 181 61 250 86 69 26 190 68 270 95 80 27 271 92 425 145 154 53 352 121
440 150 88 29 178 60 200 68 105 42 535 186 575 192 25 4 70 20 100 36 30 16
98 42 150 58 52 16 167 55 255 86 88 31 230 81 315 110 371 127 855 294 1170
405 269 94 320 112 415 145 44 15 84 31 90 36 5 5 17 9 27 9 10 0 26 4 36 9 9
5 74 27 145 50 70 22 162 54 205 70 75 29 535 193 657 234 64 21 238 84 345
124 36 14 90 33 120 43 30 11 80 28 110 39 30 11 138 49 240 84 102 36 244 87
315 112 72 26 148 53 170 60 22 8 121 43 220 80 99 36 245 88 325 114 80 27
181 63 225 81 44 18 159 59 255 92 96 33 182 64 192 69 27 14 268 99 313 110
22 6 44 14 49 20 6 5 17 9 27 9 9 0 49 14 90 31 41 16 126 48 189 69 63 22
187 64 275 94 88 30 198 64 245 76 47 11 130 38 185 60 85 32 214 77 250 86
88 23 133 36 147 44 10 6 26 10 37 10 11 0 27 7 35 16 9 8 28 19 43 24 16 5
73 25 128 44 116 40 138 43 133 19z m-15910 -20 c32 -9 63 -16 70 -14 7 1 20
-5 29 -15 15 -15 15 -19 1 -48 -9 -17 -22 -46 -29 -65 -26 -70 -225 -240 -271
-233 -11 2 -34 12 -53 23 -29 17 -35 29 -50 93 -17 71 -17 73 3 112 29 56 101
122 158 144 61 24 72 24 142 3z m11012 -101 c0 -11 -8 -26 -17 -35 -25 -22
-111 -50 -150 -49 -18 1 -33 -2 -33 -6 0 -5 -35 -19 -77 -31 -43 -13 -94 -31
-114 -42 -20 -10 -44 -19 -53 -19 -10 0 -31 -7 -47 -16 -22 -11 -34 -12 -43
-5 -10 8 -17 7 -26 -4 -7 -8 -21 -15 -31 -15 -10 0 -39 -11 -65 -25 -26 -14
-55 -25 -64 -25 -10 0 -35 -8 -56 -17 -22 -9 -43 -16 -48 -14 -6 1 -21 -4 -35
-11 -19 -10 -25 -10 -28 0 -7 18 -27 15 -47 -7 -10 -11 -37 -21 -71 -25 -94
-11 -154 -27 -177 -47 l-23 -20 40 4 c22 2 49 1 60 -3 15 -6 10 -9 -25 -14
-44 -7 -107 -25 -183 -52 -20 -8 -50 -14 -65 -14 -15 0 -32 -4 -37 -9 -6 -4
-35 -17 -65 -27 -30 -10 -68 -26 -85 -34 -16 -9 -52 -22 -80 -29 -135 -34
-215 -59 -232 -73 -7 -6 -24 -8 -38 -6 -14 3 -25 1 -25 -3 0 -5 -15 -9 -34 -9
-19 0 -38 -4 -41 -10 -3 -5 -15 -10 -26 -10 -12 0 -19 -7 -19 -20 0 -15 -7
-20 -25 -20 -14 0 -33 -4 -43 -10 -19 -11 -94 -38 -226 -81 -49 -16 -95 -34
-103 -40 -9 -8 -17 -8 -26 -1 -8 7 -17 6 -30 -3 -10 -7 -57 -25 -105 -41 -48
-15 -94 -33 -103 -41 -10 -8 -19 -9 -25 -3 -6 6 -22 3 -44 -9 -19 -10 -64 -28
-100 -41 -36 -12 -71 -27 -78 -33 -7 -5 -20 -10 -30 -11 -30 -3 -166 -49 -187
-63 -11 -7 -31 -13 -45 -13 -14 0 -33 -7 -43 -15 -11 -7 -38 -17 -60 -20 -23
-4 -60 -16 -81 -26 -22 -11 -44 -19 -48 -19 -5 0 -28 -9 -50 -20 -23 -11 -49
-20 -58 -20 -9 0 -21 -5 -27 -11 -6 -6 -37 -16 -69 -23 -61 -14 -78 -20 -204
-68 -41 -15 -82 -28 -90 -28 -8 -1 -33 -9 -55 -20 -22 -11 -52 -19 -66 -20
-14 0 -47 -11 -73 -25 -26 -14 -56 -25 -66 -25 -10 0 -22 -4 -25 -10 -3 -5
-24 -10 -45 -10 -21 0 -42 -4 -45 -10 -9 -15 -95 -50 -124 -50 -14 0 -55 -14
-89 -30 -35 -17 -71 -30 -81 -30 -9 0 -27 -7 -39 -16 -22 -15 -23 -15 -16 10
7 31 -12 36 -32 9 -10 -14 -17 -16 -31 -7 -14 9 -28 7 -65 -12 -26 -13 -54
-24 -62 -24 -8 0 -18 -9 -21 -20 -4 -13 -15 -20 -32 -20 -16 0 -27 -7 -30 -19
-5 -20 -30 -32 -71 -35 -13 -1 -26 -7 -30 -12 -4 -6 -41 -20 -82 -33 -112 -34
-251 -82 -282 -98 -15 -7 -35 -13 -45 -13 -10 0 -31 -7 -47 -15 -15 -8 -38
-12 -50 -9 -14 3 -27 -1 -36 -10 -7 -9 -37 -23 -68 -32 -30 -9 -78 -27 -106
-40 -28 -13 -60 -24 -72 -24 -11 0 -49 -12 -84 -26 -34 -14 -75 -27 -89 -29
-30 -4 -53 -11 -96 -30 -70 -31 -277 -104 -340 -121 -16 -4 -32 -8 -35 -9 -30
-8 -68 -21 -135 -50 -44 -18 -114 -43 -155 -56 -41 -12 -79 -26 -84 -31 -6 -4
-18 -8 -28 -8 -10 0 -26 -4 -36 -9 -25 -13 -86 -31 -104 -31 -8 0 -28 -7 -45
-15 -51 -25 -166 -65 -217 -75 -26 -6 -74 -21 -105 -33 -75 -32 -148 -57 -196
-68 -22 -6 -58 -18 -80 -28 -22 -10 -74 -28 -115 -40 -154 -46 -175 -53 -195
-60 -49 -19 -93 -34 -130 -43 -22 -6 -53 -16 -70 -23 -52 -22 -158 -57 -210
-70 -28 -7 -65 -20 -82 -29 -18 -9 -42 -16 -55 -16 -13 0 -54 -16 -93 -35 -38
-20 -76 -33 -83 -30 -7 3 -26 -5 -42 -16 -15 -12 -33 -18 -40 -14 -6 4 -19 1
-28 -7 -23 -19 -98 -47 -158 -58 -52 -9 -219 -62 -269 -85 -16 -8 -66 -26
-110 -40 -44 -14 -87 -29 -95 -32 -8 -4 -23 -7 -32 -8 -10 -1 -23 -7 -30 -12
-7 -6 -31 -14 -53 -17 -22 -4 -49 -13 -60 -20 -11 -7 -29 -15 -40 -19 -11 -3
-43 -14 -72 -25 -28 -11 -54 -17 -57 -14 -5 5 -28 -3 -78 -29 -9 -5 -36 -12
-60 -15 -24 -4 -62 -15 -86 -26 -24 -10 -54 -18 -67 -18 -13 0 -27 -4 -30 -10
-3 -5 -16 -10 -28 -10 -12 0 -33 -9 -47 -20 -14 -11 -38 -20 -53 -20 -15 0
-45 -9 -67 -20 -22 -11 -50 -20 -62 -20 -13 0 -32 -7 -42 -15 -11 -8 -30 -15
-43 -15 -13 0 -23 -4 -23 -10 0 -5 -9 -10 -19 -10 -11 0 -23 -4 -26 -10 -3 -5
-15 -10 -26 -10 -10 0 -27 -4 -37 -10 -38 -21 -147 -60 -169 -60 -13 0 -39 -6
-58 -14 -19 -8 -54 -18 -79 -21 -25 -4 -53 -16 -62 -26 -11 -12 -24 -17 -37
-13 -11 3 -22 2 -26 -3 -8 -11 -164 -63 -190 -63 -10 0 -24 -7 -32 -16 -7 -9
-21 -13 -35 -10 -13 4 -27 0 -34 -9 -7 -8 -18 -14 -24 -14 -6 1 -18 0 -26 -4
-23 -8 -73 -18 -95 -18 -10 0 -24 -4 -31 -10 -6 -5 -44 -18 -85 -28 -80 -21
-111 -31 -119 -40 -8 -10 -75 -31 -98 -31 -11 0 -24 -4 -27 -10 -3 -5 -45 -21
-93 -35 -48 -14 -114 -39 -147 -55 -66 -33 -187 -79 -223 -86 -13 -3 -40 -11
-60 -18 -20 -8 -57 -20 -81 -27 -24 -7 -64 -23 -89 -36 -25 -13 -53 -23 -61
-23 -9 0 -27 -7 -39 -16 -12 -8 -44 -22 -71 -30 -27 -8 -54 -21 -61 -29 -7 -8
-21 -15 -31 -15 -10 0 -33 -9 -51 -20 -18 -11 -40 -20 -49 -20 -9 0 -28 -9
-42 -20 -14 -11 -31 -20 -39 -20 -7 0 -24 -9 -38 -20 -14 -11 -31 -20 -39 -20
-8 0 -32 -14 -55 -30 -23 -17 -62 -46 -88 -65 -26 -19 -51 -35 -55 -35 -9 0
-242 -225 -279 -270 -12 -14 -37 -39 -56 -57 -19 -17 -45 -52 -59 -77 -21 -40
-28 -46 -56 -46 -23 0 -33 -5 -33 -15 0 -8 -4 -15 -10 -15 -5 0 -10 7 -10 15
0 43 -31 6 -106 -128 -48 -83 -39 -41 13 65 28 57 74 135 102 175 101 143 329
360 507 483 71 49 263 151 384 204 36 16 83 36 105 46 105 46 686 251 1025
362 1137 371 5063 1684 6130 2049 245 84 462 153 482 154 20 0 45 8 56 18 10
9 72 35 136 56 65 22 125 46 134 54 10 8 22 13 28 10 12 -4 146 41 894 297
195 67 472 161 615 210 143 49 420 143 615 209 333 114 358 121 409 115 39 -5
52 -4 47 5 -4 6 -15 11 -24 11 -39 0 16 23 223 93 121 41 233 80 249 86 32 13
46 7 28 -11 -33 -33 8 -37 74 -8 33 16 44 26 44 43 0 26 -95 -8 887 321 640
214 607 203 646 205 20 1 27 -4 27 -17z m-12260 -49 c0 -10 14 -27 31 -38 49
-32 59 -60 45 -128 -9 -46 -20 -66 -56 -103 -100 -103 -154 -124 -244 -92 -37
13 -39 15 -58 90 l-19 77 30 58 c31 62 67 93 146 125 83 34 125 38 125 11z
m-1030 -125 c11 -12 20 -27 20 -34 0 -6 11 -19 25 -28 24 -16 25 -21 24 -96
l-2 -79 -51 -49 c-104 -101 -142 -114 -241 -89 l-50 13 -19 78 c-18 73 -18 80
-3 130 21 67 65 108 153 146 83 35 116 37 144 8z m-957 -59 c14 -6 41 -33 62
-60 l37 -49 -7 -84 c-7 -91 -10 -96 -87 -158 -78 -64 -100 -71 -181 -58 -40 6
-77 16 -83 23 -6 7 -24 44 -39 84 -28 72 -28 73 -11 117 38 98 76 132 195 172
79 27 83 27 114 13z m11710 -68 c17 -17 -43 -41 -348 -135 -161 -49 -285 -90
-435 -141 -69 -23 -179 -59 -245 -80 -66 -20 -153 -48 -193 -61 -40 -13 -81
-24 -91 -24 -11 0 -22 -4 -26 -9 -6 -10 -203 -78 -265 -92 -19 -4 -76 -23
-125 -42 -50 -19 -313 -109 -585 -201 -272 -91 -628 -212 -790 -267 -162 -55
-329 -110 -370 -123 -41 -13 -109 -35 -150 -50 -41 -14 -158 -53 -260 -86
-102 -34 -210 -70 -240 -81 -30 -11 -118 -40 -195 -65 -77 -25 -176 -58 -220
-73 -44 -16 -125 -43 -180 -60 -55 -17 -127 -42 -160 -55 -51 -20 -258 -88
-440 -144 -49 -15 -190 -62 -250 -84 -63 -22 -991 -325 -1210 -395 -77 -24
-155 -51 -173 -59 -18 -8 -38 -14 -45 -14 -6 0 -34 -9 -62 -20 -27 -11 -126
-44 -220 -74 -206 -65 -349 -114 -392 -132 -50 -22 -80 -16 -54 11 5 6 11 24
13 40 3 30 4 30 248 111 135 45 387 128 560 184 408 132 702 228 920 300 904
297 1441 475 2810 930 872 291 1713 569 1870 620 157 50 373 120 480 155 107
34 269 87 360 115 91 29 210 68 265 87 77 26 110 32 145 28 24 -3 48 -9 53
-14z m-12598 -57 c22 -24 46 -44 53 -44 16 0 15 -46 -3 -115 -8 -31 -11 -63
-8 -71 7 -20 -67 -91 -130 -124 -39 -21 -50 -23 -67 -12 -11 6 -33 12 -48 12
-43 0 -92 20 -92 37 0 8 -16 37 -35 63 -19 26 -35 56 -34 66 0 11 14 48 32 84
23 46 43 73 72 91 45 30 170 69 200 62 11 -2 38 -24 60 -49z m-880 -99 c62
-47 115 -100 115 -118 0 -11 -11 -39 -24 -61 -26 -46 -45 -113 -28 -102 6 3
14 2 17 -4 9 -15 -61 -79 -110 -101 -46 -21 -56 -17 -29 12 l19 21 -50 -6
c-28 -4 -64 -9 -82 -12 -39 -6 -50 9 -29 41 9 14 12 25 7 25 -20 0 -101 83
-101 104 0 32 43 117 75 149 28 27 127 65 175 66 14 0 34 -6 45 -14z m11233
-22 c-2 -13 -42 -30 -153 -66 -328 -105 -462 -146 -500 -152 -22 -4 -53 -15
-70 -24 -16 -10 -77 -33 -135 -50 -58 -18 -190 -61 -295 -95 -258 -85 -323
-102 -337 -88 -18 18 26 47 120 82 46 16 88 30 93 30 9 0 99 29 442 141 31 11
68 19 81 19 27 0 81 16 117 35 14 8 70 28 125 45 54 17 126 39 159 49 33 11
78 23 99 27 22 4 67 20 100 35 74 34 160 40 154 12z m-11963 -22 c3 -11 15
-23 26 -26 10 -4 19 -10 19 -14 0 -4 11 -21 25 -37 34 -40 33 -96 -2 -160 -15
-27 -31 -50 -35 -52 -4 -2 -8 -8 -8 -14 0 -6 6 -6 15 2 12 10 16 9 21 -4 12
-30 -77 -106 -122 -106 -14 0 -10 8 16 35 36 37 28 45 -20 20 -16 -8 -57 -18
-90 -22 -57 -5 -60 -5 -60 16 0 12 -6 21 -15 21 -24 0 -111 97 -110 122 0 13
10 39 20 58 11 19 22 44 25 55 8 28 90 81 153 99 105 30 134 31 142 7z m10402
-454 c17 -1 20 -5 12 -19 -5 -10 -22 -24 -37 -32 -60 -30 -771 -254 -827 -260
-32 -4 -66 -13 -75 -21 -28 -25 -120 -61 -335 -129 -115 -37 -276 -89 -357
-116 -80 -28 -161 -50 -178 -50 -18 0 -56 -13 -84 -29 -73 -41 -298 -110 -378
-115 -36 -2 -76 -9 -87 -16 -15 -7 -21 -8 -21 0 0 6 15 17 34 25 18 8 47 25
62 38 16 13 56 33 89 45 143 48 224 71 276 77 36 4 70 16 100 35 24 17 50 30
58 30 8 0 107 31 220 69 401 136 544 178 581 174 26 -3 45 2 71 20 36 24 153
71 259 103 70 21 462 149 515 168 22 8 49 12 60 10 11 -3 30 -6 42 -7z m10703
-222 c0 -2 -5 -16 -12 -30 -8 -18 -19 -25 -39 -25 -15 0 -30 -6 -33 -12 -5
-10 -7 -10 -12 0 -7 14 -44 16 -44 2 0 -5 -9 -10 -20 -10 -11 0 -20 -4 -20
-10 0 -5 -8 -10 -18 -10 -9 0 -23 -9 -30 -20 -14 -23 -68 -28 -75 -7 -3 8 -12
4 -27 -13 -15 -17 -24 -21 -27 -12 -7 19 -23 14 -23 -8 0 -22 -16 -27 -23 -7
-3 8 -11 5 -24 -10 -12 -13 -32 -23 -47 -23 -14 0 -26 -4 -26 -9 0 -4 -22 -19
-50 -32 -27 -13 -50 -28 -50 -33 0 -4 -7 -3 -15 4 -8 7 -15 8 -15 3 0 -13 -95
-53 -125 -53 -12 0 -28 -6 -34 -14 -6 -8 -32 -17 -56 -21 -25 -3 -45 -10 -45
-14 0 -4 -33 -18 -72 -31 -40 -13 -90 -31 -110 -42 -21 -10 -48 -18 -61 -18
-13 0 -35 -8 -48 -19 -13 -10 -37 -21 -54 -24 -42 -8 -125 -36 -158 -54 -16
-8 -37 -13 -48 -10 -10 3 -19 1 -19 -4 0 -5 -7 -9 -15 -9 -9 0 -33 -9 -55 -20
-22 -11 -48 -20 -60 -20 -11 0 -20 -4 -20 -8 0 -8 -121 -47 -165 -54 -11 -2
-29 -11 -39 -20 -11 -10 -24 -18 -29 -18 -5 0 -23 -6 -40 -14 -18 -7 -52 -19
-77 -25 -25 -7 -54 -16 -65 -21 -27 -12 -125 -47 -205 -72 -36 -12 -80 -27
-98 -35 -18 -8 -42 -15 -52 -16 -11 -1 -20 -5 -20 -9 0 -4 -8 -8 -18 -8 -10 0
-42 -11 -70 -25 -29 -14 -61 -25 -72 -25 -11 0 -45 -12 -77 -26 -32 -14 -69
-28 -84 -30 -14 -2 -38 -10 -55 -19 -16 -8 -36 -15 -44 -15 -8 0 -23 -7 -33
-15 -11 -7 -37 -17 -59 -20 -22 -4 -66 -20 -99 -36 -32 -16 -68 -29 -80 -29
-12 0 -36 -8 -53 -19 -17 -10 -49 -22 -71 -26 -22 -4 -51 -13 -65 -20 -14 -7
-65 -27 -115 -45 -49 -17 -112 -39 -140 -50 -27 -10 -68 -24 -90 -31 -22 -7
-55 -18 -73 -26 -18 -8 -69 -25 -114 -38 -44 -14 -86 -28 -92 -33 -6 -5 -31
-14 -56 -21 -25 -8 -58 -19 -75 -26 -16 -7 -52 -20 -80 -30 -27 -10 -64 -24
-82 -31 -17 -8 -35 -14 -41 -14 -5 0 -43 -13 -83 -29 -41 -16 -123 -45 -184
-65 -60 -19 -141 -47 -180 -61 -38 -15 -90 -33 -115 -40 -25 -7 -96 -32 -159
-54 -63 -22 -128 -40 -145 -39 -17 0 -44 -5 -59 -11 -16 -6 -42 -11 -58 -11
-16 0 -29 -4 -29 -10 0 -5 -5 -10 -10 -10 -6 0 -33 -11 -62 -25 -28 -14 -55
-25 -60 -25 -5 0 -25 -10 -46 -23 -20 -13 -86 -40 -147 -60 -60 -20 -155 -53
-210 -73 -55 -20 -174 -62 -265 -94 -91 -32 -210 -74 -265 -95 -55 -20 -113
-41 -129 -46 -16 -5 -61 -20 -100 -35 -155 -57 -168 -61 -388 -140 -40 -14
-82 -29 -93 -34 -11 -5 -29 -11 -40 -13 -11 -3 -72 -24 -135 -47 -63 -23 -122
-43 -130 -45 -8 -2 -62 -20 -120 -40 -150 -53 -302 -102 -352 -115 -24 -6 -52
-15 -63 -20 -25 -12 -75 -29 -245 -85 -74 -24 -148 -49 -165 -55 -16 -6 -84
-29 -150 -51 -66 -23 -133 -47 -150 -54 -16 -7 -73 -30 -125 -50 -52 -20 -121
-48 -153 -61 -32 -13 -63 -24 -69 -24 -5 0 -24 -6 -41 -14 -18 -7 -50 -20 -72
-29 -22 -8 -65 -25 -95 -38 -30 -12 -73 -28 -95 -35 -213 -68 -630 -263 -875
-409 -212 -126 -281 -177 -414 -309 -72 -71 -154 -146 -183 -167 -28 -21 -84
-76 -123 -121 -160 -185 -224 -238 -252 -210 -28 28 -17 184 18 239 8 12 14
29 14 36 0 8 9 22 20 32 11 10 20 28 20 40 0 11 4 25 8 30 13 15 32 89 32 124
0 47 20 78 102 157 84 81 147 121 203 129 37 6 304 128 315 145 3 4 23 17 45
29 22 12 63 34 90 49 28 15 87 42 130 61 44 19 118 52 163 73 46 21 90 38 96
38 7 0 15 3 19 6 9 10 135 53 202 69 102 26 138 36 185 55 25 9 83 32 130 49
47 18 94 36 105 41 85 35 259 100 269 100 7 0 30 8 52 19 21 10 71 29 109 41
39 12 86 28 105 35 19 8 62 21 95 31 33 10 82 28 109 41 28 13 62 23 77 23 15
0 30 4 33 9 3 5 20 11 38 13 18 3 71 19 118 37 97 37 92 35 185 59 39 9 80 23
92 30 32 18 141 51 148 44 3 -3 5 0 5 6 0 7 7 12 15 12 8 0 23 4 33 9 46 23
95 41 112 41 11 0 28 4 38 10 9 5 94 35 187 66 94 31 186 64 205 73 20 10 69
27 110 40 41 13 84 27 95 31 11 5 38 14 60 21 22 6 54 17 71 25 18 7 49 16 70
20 22 4 54 15 72 24 18 10 92 37 165 60 73 23 163 53 200 66 38 13 73 22 78
18 5 -3 9 -1 9 4 0 6 12 13 28 16 15 4 49 18 75 32 26 14 52 22 56 19 5 -3 26
4 48 14 21 10 90 36 153 56 63 20 124 42 135 48 20 11 154 60 210 77 17 5 75
16 130 25 148 24 157 26 179 46 11 11 25 19 32 19 7 0 25 11 41 23 25 22 110
60 130 59 4 0 13 3 18 8 6 4 26 11 45 14 19 4 62 18 95 31 33 12 80 30 105 38
65 22 132 46 155 57 11 4 31 11 45 13 14 3 50 14 80 25 30 11 75 26 100 34 25
8 119 40 210 70 91 31 197 65 236 77 38 12 87 30 107 41 20 11 37 18 37 15 0
-2 37 9 83 26 45 17 107 37 137 46 30 8 60 19 65 23 6 5 28 11 49 16 22 4 51
13 65 20 14 8 34 14 44 14 10 0 35 9 57 20 22 11 44 20 49 20 5 0 22 5 38 12
15 6 36 10 46 9 9 -1 17 3 17 8 0 6 7 11 15 11 8 0 29 6 47 14 55 24 131 48
160 50 15 2 34 8 42 15 8 7 24 13 35 14 12 1 21 4 21 8 0 3 26 12 58 18 31 7
64 20 73 27 9 8 20 14 25 13 5 -2 20 2 34 8 50 21 126 43 148 43 12 0 22 5 22
10 0 6 16 10 35 10 19 0 35 3 35 8 0 9 92 52 111 52 8 0 27 7 43 15 15 8 32
12 37 9 5 -3 16 2 25 11 9 9 23 14 31 11 8 -4 29 0 46 8 18 8 42 17 55 21 12
3 22 11 22 16 0 5 9 9 20 9 11 0 20 -4 20 -10 0 -17 18 -11 24 8 6 19 58 42
94 42 12 0 22 5 22 10 0 6 9 10 20 10 11 0 20 4 20 8 0 4 28 16 63 25 34 10
72 22 85 28 13 5 27 7 32 4 5 -3 10 0 12 6 2 6 13 12 23 13 11 2 33 8 48 14
16 7 33 9 39 6 5 -4 23 3 39 15 16 12 34 19 39 16 6 -4 24 5 41 19 28 24 49
31 74 26 5 -1 32 8 60 21 27 12 59 25 70 30 11 5 38 13 60 18 22 5 54 14 70
19 17 6 48 16 70 22 22 7 51 19 65 28 14 9 30 17 35 18 18 4 79 26 110 39 17
7 53 16 82 19 28 3 70 14 92 25 22 12 47 21 56 21 8 0 15 4 15 9 0 4 26 9 57
9 32 0 59 5 61 11 2 5 19 15 38 21 23 8 34 17 30 26 -4 10 2 12 24 7 18 -3 30
-1 30 5 0 9 56 26 93 27 10 0 22 7 27 15 7 12 12 11 28 -8 24 -28 32 -28 33 1
0 12 3 16 6 10 8 -20 41 -15 48 7 5 17 25 29 25 15z m-12900 -20 l25 -13 -30
-12 c-16 -7 -43 -16 -60 -21 -16 -4 -115 -37 -220 -74 -207 -72 -887 -297
-975 -323 -30 -9 -60 -20 -66 -24 -12 -9 -91 -37 -194 -70 -36 -11 -103 -34
-150 -50 -47 -16 -184 -63 -305 -104 -370 -125 -398 -134 -470 -161 -38 -14
-175 -61 -303 -104 -281 -95 -318 -100 -254 -32 18 20 45 34 80 42 28 7 55 17
58 22 3 5 18 9 34 9 16 0 31 4 35 9 3 5 20 13 38 16 17 4 45 14 61 22 17 9 59
24 95 35 36 11 95 29 131 40 36 11 90 24 121 29 34 5 78 22 114 44 32 19 69
35 82 35 13 0 31 4 41 9 9 5 44 17 77 26 33 9 85 26 115 37 60 22 160 48 201
52 15 1 51 17 82 34 30 17 57 29 60 26 2 -3 24 4 48 14 96 43 119 51 155 57
64 11 178 47 195 61 8 8 25 14 37 14 12 0 30 4 40 9 52 26 114 51 127 51 9 0
23 4 33 9 9 6 51 19 92 31 41 12 86 26 100 32 14 5 66 23 115 39 50 16 99 33
110 38 18 9 55 21 80 27 20 5 80 27 97 35 10 5 24 9 32 9 8 0 27 6 43 14 15 8
53 20 83 26 30 7 64 18 76 25 11 7 34 15 50 18 16 2 31 5 34 5 3 1 16 -5 30
-13z m-262 -577 c-3 -7 -31 -20 -64 -29 -33 -9 -74 -24 -91 -33 -18 -9 -43
-16 -57 -16 -14 0 -40 -13 -58 -29 -39 -33 -253 -108 -351 -121 -35 -5 -93
-23 -128 -40 -35 -16 -76 -30 -90 -30 -14 0 -47 -11 -72 -25 -52 -27 -681
-235 -713 -235 -24 0 -207 -61 -251 -84 -18 -9 -45 -16 -61 -16 -16 0 -55 -9
-87 -20 -32 -11 -67 -20 -77 -20 -10 0 -35 -11 -56 -24 -51 -33 -540 -189
-631 -201 -25 -3 -59 -12 -75 -20 -35 -16 -117 -49 -191 -76 -27 -10 -63 -18
-78 -19 -16 0 -54 -13 -85 -29 -86 -44 -182 -73 -219 -65 -26 5 -36 2 -55 -18
-30 -33 -174 -80 -241 -80 -52 0 -86 -14 -117 -48 -8 -10 -43 -25 -78 -34 -35
-10 -366 -119 -735 -242 -670 -224 -925 -308 -1257 -411 -174 -54 -490 -156
-605 -194 -33 -11 -139 -47 -235 -78 -372 -123 -713 -313 -887 -495 -38 -39
-81 -89 -97 -110 -48 -64 -119 -131 -143 -134 -19 -3 -23 1 -23 25 1 76 109
223 291 395 75 70 173 153 219 184 100 69 256 142 365 173 190 53 270 77 435
132 96 32 222 72 280 89 195 58 1271 406 1490 481 30 11 64 21 75 23 58 11 86
20 96 32 6 8 23 14 38 14 28 0 113 23 146 40 11 5 106 40 210 76 159 56 205
68 280 73 50 4 100 12 112 19 12 7 31 12 42 12 12 0 29 4 39 9 9 5 42 21 72
36 30 15 65 37 78 48 17 16 40 22 90 25 37 2 72 9 79 14 7 5 17 7 22 4 5 -4
16 3 25 15 16 23 84 45 174 56 29 3 55 10 58 14 3 5 14 9 25 9 11 0 41 11 68
25 60 32 178 65 230 65 22 0 46 6 53 13 7 8 24 20 37 27 25 13 437 150 452
150 5 0 34 12 65 26 36 16 69 24 93 22 37 -3 89 13 201 62 36 16 119 45 185
65 157 48 254 79 395 125 63 21 162 52 220 70 58 18 123 39 144 47 22 8 62 16
89 18 31 2 57 10 70 23 17 15 41 21 99 24 66 4 81 9 115 35 23 18 93 49 175
77 110 38 149 47 193 45 45 -2 59 1 78 20 20 18 31 21 64 15 35 -5 41 -3 46
15 4 18 13 21 52 21 33 0 45 -4 43 -12z m-9971 -68 c21 -11 54 -20 73 -20 34
-1 70 -19 70 -35 0 -4 10 -16 23 -27 17 -16 32 -19 66 -15 55 6 93 -6 85 -28
-9 -22 8 -18 38 10 26 24 58 34 58 18 0 -5 20 -21 45 -36 25 -16 45 -32 45
-36 0 -9 51 -7 97 4 28 6 32 5 30 -14 -1 -16 -8 -21 -29 -21 -15 0 -28 -5 -28
-11 0 -20 43 -50 59 -43 26 11 116 22 121 14 3 -4 11 -9 18 -11 8 -3 4 -13
-13 -32 -14 -15 -23 -27 -20 -27 21 0 196 47 281 76 55 19 113 34 127 34 37 0
35 -28 -3 -41 -33 -12 -32 -11 -24 -33 8 -20 44 -21 44 -1 0 20 29 19 36 0 15
-37 -16 -69 -109 -114 -51 -25 -110 -54 -132 -64 -22 -11 -50 -25 -62 -31 -67
-32 32 -29 122 4 50 18 168 49 215 56 34 5 60 -4 60 -21 0 -7 7 -15 15 -19 22
-8 19 -20 -15 -53 -19 -19 -54 -37 -93 -48 -210 -59 -423 -157 -411 -189 5
-12 -19 -41 -55 -66 -11 -8 -21 -20 -21 -26 0 -6 -12 -14 -27 -17 -16 -3 -33
-15 -40 -25 -11 -18 -9 -20 15 -17 15 1 72 14 127 29 55 14 109 26 120 26 17
0 16 -3 -10 -25 -16 -14 -41 -28 -55 -31 -47 -13 -130 -53 -130 -63 0 -6 22
-11 50 -11 28 0 50 5 50 11 0 6 26 9 72 7 l72 -4 3 -38 c1 -20 -2 -48 -7 -62
-9 -23 -7 -24 26 -24 19 0 97 18 173 40 141 41 181 48 181 30 0 -5 -3 -10 -7
-10 -5 0 -18 -8 -31 -18 -36 -28 -20 -54 32 -51 22 1 47 1 54 0 14 -1 17 -51
2 -51 -5 0 -10 -7 -10 -15 0 -8 -7 -15 -15 -15 -9 0 -15 -9 -15 -24 0 -14 -4
-28 -10 -31 -19 -12 -11 -36 13 -35 58 5 63 -10 15 -41 -19 -12 -24 -18 -12
-15 11 3 29 -1 40 -9 10 -8 29 -15 42 -15 12 0 22 -3 22 -7 1 -5 5 -28 10 -53
15 -79 13 -81 -325 -206 -194 -71 -466 -178 -492 -192 -11 -7 -4 -11 28 -16
79 -12 129 -36 135 -65 3 -14 7 -35 9 -45 5 -26 -57 -85 -121 -116 -27 -12
-92 -37 -144 -56 -52 -18 -221 -78 -375 -133 -502 -182 -596 -210 -744 -225
-29 -3 -59 -11 -67 -17 -10 -8 -14 -8 -14 0 0 6 5 11 10 11 6 0 10 7 10 16 0
10 6 14 15 10 11 -4 15 1 15 19 0 13 5 27 10 30 6 4 8 14 6 23 -6 19 67 142
84 142 5 0 10 7 10 15 0 22 -12 19 -99 -19 -43 -19 -181 -69 -307 -112 -191
-64 -243 -78 -311 -82 -56 -3 -88 -1 -97 7 -24 20 -31 115 -12 143 9 12 16 27
16 32 0 15 -98 -1 -205 -32 -55 -17 -136 -40 -180 -52 -44 -12 -108 -32 -142
-46 -67 -26 -140 -31 -165 -11 -17 13 -38 69 -38 101 0 26 66 83 105 92 39 8
121 49 163 81 28 21 31 27 20 41 -10 12 -10 16 0 19 6 3 12 9 12 14 0 11 -78
2 -147 -17 -28 -8 -70 -14 -92 -14 -23 0 -41 -4 -41 -10 0 -5 -11 -10 -25 -10
-14 0 -25 4 -25 9 0 5 -7 17 -16 26 -15 14 -14 17 6 35 13 11 28 20 34 20 6 0
4 4 -4 10 -12 7 -11 12 8 28 12 11 22 24 22 30 0 6 9 13 20 17 11 3 28 19 39
34 l20 27 -31 -4 c-21 -3 -29 -1 -26 8 4 13 127 84 216 125 63 29 68 53 22
104 -34 36 -24 36 -166 8 -80 -16 -299 -88 -359 -119 -53 -27 -222 -82 -315
-102 -41 -9 -88 -22 -105 -27 -159 -56 -235 -67 -235 -34 0 19 40 65 57 65 7
0 39 14 71 30 33 17 65 30 72 30 6 0 23 9 37 20 14 11 31 20 38 20 7 0 37 12
65 27 49 25 70 47 57 59 -5 5 -304 -53 -318 -62 -5 -3 -12 10 -17 28 -8 26 -6
35 6 43 8 6 24 20 35 33 11 12 31 22 43 22 35 0 54 11 54 30 0 26 33 50 90 65
3 1 18 7 33 13 16 7 35 12 44 12 8 0 45 16 81 36 122 67 131 77 92 102 -11 6
-19 20 -18 30 3 41 -3 61 -22 67 -11 3 -20 13 -20 21 0 7 9 19 20 26 29 19 25
28 -14 28 -18 0 -39 6 -45 14 -7 8 -23 17 -36 20 -14 4 -25 11 -25 16 0 15
-38 12 -43 -2 -2 -7 -7 -10 -11 -7 -9 8 4 39 16 39 15 0 37 32 38 53 0 11 9
30 20 44 22 29 27 73 8 74 -7 0 -3 4 10 9 19 8 21 13 12 30 -6 11 -16 20 -23
20 -13 0 11 18 66 49 20 11 52 30 71 40 19 11 53 25 75 31 54 14 52 30 -2 25
-24 -3 -56 -1 -72 3 l-28 8 39 23 c29 18 49 22 81 18 23 -2 43 -1 45 3 7 17
172 91 197 88 23 -3 26 -7 23 -35 -2 -20 1 -33 8 -33 30 0 114 26 198 62 85
37 108 57 82 73 -5 3 -10 14 -10 25 0 18 19 30 48 30 10 0 42 20 72 45 30 25
58 45 62 45 4 0 28 27 54 61 54 68 89 90 148 94 23 2 58 10 78 19 46 20 57 20
79 1 33 -31 159 -14 159 21 0 18 20 18 60 -2 29 -15 35 -15 65 -1 18 9 41 29
50 45 15 24 24 29 55 29 21 0 52 8 70 17 18 9 47 16 64 16 17 0 47 5 66 11 19
5 60 10 90 10 47 0 58 -4 76 -26 20 -26 22 -26 88 -15 37 6 109 24 159 40 149
46 154 47 204 20z m6198 -70 c0 -19 -7 -27 -30 -33 -16 -5 -38 -13 -47 -18
-10 -5 -24 -9 -31 -9 -7 0 -29 -8 -50 -19 -20 -10 -44 -21 -54 -24 -10 -3 -43
-15 -73 -26 -30 -12 -62 -21 -71 -21 -9 0 -22 -6 -28 -14 -6 -8 -26 -17 -44
-20 -18 -4 -45 -9 -62 -13 -16 -3 -34 -9 -40 -13 -5 -5 -27 -11 -47 -15 -32
-6 -38 -4 -38 9 0 9 11 28 25 42 14 14 25 29 25 33 0 13 99 43 120 36 10 -3
25 1 33 10 9 8 21 15 27 15 7 0 25 10 42 21 25 18 32 19 39 8 7 -11 11 -11 17
-1 5 7 29 13 55 14 30 2 47 7 47 15 0 17 70 34 109 27 25 -5 31 -3 31 10 0 12
7 16 23 14 16 -2 22 -10 22 -28z m861 -353 c21 -21 -24 -42 -258 -118 -139
-45 -280 -92 -313 -104 -33 -13 -109 -39 -170 -59 -60 -19 -265 -87 -454 -151
-325 -109 -391 -127 -391 -107 0 33 47 90 73 90 7 0 139 44 182 62 85 34 130
50 141 50 7 0 59 15 116 34 57 19 123 37 148 41 25 4 61 15 80 25 19 9 49 23
65 30 17 7 48 21 70 31 71 33 128 49 200 55 82 7 124 20 226 67 41 20 92 38
114 42 22 4 47 11 55 15 17 10 106 7 116 -3z m-1108 -20 c26 1 30 -22 5 -30
-10 -3 -34 -15 -53 -25 -19 -11 -91 -39 -160 -62 -69 -23 -145 -48 -170 -57
-25 -8 -61 -21 -80 -28 -66 -26 -80 -28 -80 -10 0 26 23 43 91 66 35 12 67 26
70 32 4 5 19 7 33 5 14 -3 26 -1 26 3 0 5 11 9 25 9 25 0 125 45 135 61 3 4
24 11 47 15 23 3 44 13 47 21 4 10 12 13 24 7 9 -4 27 -7 40 -7z m-1140 -76
c55 -47 28 -65 -233 -154 -33 -11 -96 -33 -140 -49 -44 -16 -114 -40 -155 -53
-41 -13 -115 -39 -163 -59 -48 -20 -96 -36 -106 -36 -9 0 -21 -4 -26 -9 -6 -5
-39 -18 -75 -29 -88 -28 -129 -42 -165 -57 -16 -7 -77 -28 -135 -48 -58 -19
-143 -49 -190 -67 -47 -17 -110 -38 -140 -46 -68 -18 -134 -41 -157 -53 -34
-18 -158 -50 -203 -53 -25 -2 -47 -6 -50 -9 -10 -13 -203 -101 -253 -116 -29
-8 -56 -19 -62 -23 -5 -4 -39 -18 -75 -30 -36 -12 -126 -45 -200 -72 -175 -65
-466 -170 -605 -218 -60 -22 -159 -57 -220 -80 -180 -68 -214 -80 -229 -80 -8
0 -49 -14 -92 -31 -102 -41 -234 -48 -234 -13 0 8 -7 14 -15 14 -8 0 -15 5
-15 10 0 6 5 10 10 10 6 0 10 7 10 16 0 10 16 36 35 60 19 23 35 47 35 53 0
17 41 39 101 55 31 8 76 24 100 35 40 20 174 62 309 97 30 8 101 30 156 49 56
19 126 37 155 41 30 4 65 13 79 20 14 7 57 22 95 32 39 11 88 25 110 32 81 24
221 62 248 67 15 3 30 9 33 14 3 5 16 9 30 9 14 0 33 4 43 10 10 5 53 19 97
30 43 12 85 26 92 33 8 6 37 10 65 10 29 0 54 3 57 8 3 5 43 9 88 10 45 2 82
6 82 11 0 16 83 88 102 88 10 0 32 7 48 15 17 9 30 12 30 8 0 -4 5 -2 12 5 7
7 20 12 29 12 19 0 122 31 129 40 6 6 96 34 165 50 27 6 52 15 55 19 6 9 84
31 118 34 12 1 22 4 22 8 0 7 64 31 140 53 25 7 55 18 65 23 11 5 47 16 80 23
33 8 66 20 73 27 7 7 19 10 27 7 8 -4 15 -2 15 2 0 10 69 34 95 34 8 0 15 4
15 9 0 6 8 9 18 9 9 0 55 14 102 31 47 17 95 31 107 31 12 0 23 5 25 12 2 6
13 12 24 13 10 1 27 6 37 10 9 4 23 5 30 2 7 -3 21 1 32 9 10 8 27 14 37 14
10 0 18 5 18 11 0 5 4 8 9 5 5 -4 11 -2 13 4 1 5 23 12 48 15 25 3 47 10 48
15 2 6 12 10 23 10 10 0 19 5 19 11 0 6 8 8 18 5 9 -3 24 -1 32 4 21 13 24 13
48 -9z m587 -129 c-3 -8 -5 -17 -5 -21 0 -18 -129 -63 -265 -93 -27 -7 -56
-17 -62 -24 -7 -7 -30 -18 -50 -24 -21 -6 -51 -18 -68 -25 -132 -57 -177 -74
-225 -85 -61 -13 -90 -23 -235 -75 -55 -20 -122 -43 -150 -50 -82 -23 -147
-46 -200 -70 -78 -35 -163 -65 -188 -65 -13 0 -52 -12 -88 -26 -139 -56 -195
-75 -247 -81 l-55 -6 8 39 c9 52 9 52 63 59 26 4 67 13 92 22 25 8 63 17 85
20 54 7 85 20 85 35 1 17 142 88 174 88 14 0 37 5 53 11 19 7 29 7 31 0 5 -15
50 -13 92 3 99 39 207 78 225 81 50 11 105 30 105 37 0 4 20 13 44 19 33 8 46
16 48 32 3 21 25 35 116 73 40 16 45 16 70 2 28 -17 89 -13 172 11 19 6 47 12
61 15 14 3 36 15 49 26 13 11 31 20 40 20 10 0 23 7 30 15 7 8 21 15 31 15 11
0 19 4 19 8 0 9 90 28 128 27 14 0 20 -5 17 -13z m-84 -333 c17 -32 -12 -54
-122 -96 -103 -39 -165 -51 -181 -35 -15 15 25 67 64 82 18 7 53 22 77 33 26
11 55 17 72 13 17 -3 32 0 39 9 18 21 37 18 51 -6z m2939 -74 c7 -8 24 -15 39
-15 26 0 59 -15 51 -23 -10 -10 -138 -57 -190 -71 -30 -7 -73 -21 -95 -29 -72
-27 -99 -36 -155 -51 -30 -8 -113 -36 -185 -61 -71 -25 -143 -50 -160 -54 -44
-12 -447 -148 -685 -231 -113 -39 -219 -75 -235 -79 -17 -4 -39 -12 -50 -18
-24 -12 -133 -49 -275 -93 -58 -17 -118 -38 -133 -46 -16 -8 -63 -26 -105 -40
-42 -15 -82 -30 -88 -35 -6 -5 -37 -13 -70 -18 -52 -8 -105 -21 -209 -50 -16
-5 -50 -16 -75 -25 -25 -8 -79 -25 -120 -36 -41 -12 -91 -27 -110 -34 -19 -7
-51 -19 -70 -26 -19 -6 -64 -23 -100 -37 -36 -14 -85 -31 -110 -38 -25 -8 -79
-27 -120 -44 -41 -16 -115 -41 -165 -56 -49 -15 -108 -33 -130 -40 -22 -8 -65
-19 -95 -25 -51 -11 -107 -33 -171 -66 -14 -7 -48 -21 -75 -30 -79 -27 -311
-161 -416 -241 -54 -41 -132 -109 -175 -152 -73 -72 -163 -181 -163 -197 0 -3
-15 -19 -32 -36 -25 -22 -40 -28 -63 -24 -18 2 -37 -2 -47 -12 -16 -14 -18
-13 -18 3 0 52 108 201 241 332 279 273 447 368 924 523 105 34 291 94 415
135 124 40 299 96 390 124 91 29 577 189 1080 356 503 168 925 305 938 305 12
0 33 7 46 15 21 14 717 252 742 254 6 1 17 -6 24 -14z m-3449 -95 c31 -17 22
-38 -29 -64 -26 -13 -241 -88 -477 -166 -237 -78 -446 -148 -465 -155 -19 -8
-102 -36 -185 -63 -366 -119 -1278 -427 -1360 -459 -49 -19 -160 -59 -245 -88
-213 -72 -554 -222 -696 -306 -118 -70 -174 -116 -321 -267 -72 -74 -136 -131
-142 -128 -14 9 22 106 64 171 18 28 63 79 101 114 38 36 119 113 179 172 183
178 304 246 552 314 71 19 151 44 178 54 28 10 86 32 130 49 98 37 333 102
368 102 14 0 28 4 31 9 3 5 18 11 33 14 16 2 48 12 73 20 25 9 92 31 150 48
58 18 109 36 114 41 6 4 19 8 29 8 11 0 67 15 126 34 58 19 126 40 151 47 25
7 164 53 310 102 146 49 303 100 350 113 47 13 94 28 105 33 11 5 85 31 165
56 140 46 264 88 305 105 11 4 79 25 150 45 72 21 137 42 145 46 21 12 88 11
111 -1z m-2831 -50 c0 -5 14 -10 30 -10 35 0 35 1 14 -44 -14 -29 -26 -37 -73
-51 -31 -9 -66 -21 -79 -26 -13 -5 -34 -9 -47 -9 -23 0 -25 4 -26 45 -1 25 -2
51 -3 58 -1 7 20 16 52 21 28 5 52 13 52 18 0 4 18 8 40 8 22 0 40 -4 40 -10z
m1119 -200 c31 -9 50 -24 51 -41 0 -17 -142 -75 -415 -167 -49 -17 -214 -75
-365 -128 -151 -53 -423 -148 -605 -210 -338 -115 -373 -128 -580 -209 -66
-26 -169 -64 -230 -85 -60 -21 -173 -63 -250 -93 -77 -30 -158 -60 -180 -67
-58 -18 -232 -103 -290 -141 -42 -28 -137 -101 -155 -119 -55 -57 -182 -170
-191 -170 -19 0 0 71 29 110 29 39 147 150 159 150 8 0 47 32 103 84 14 12 35
28 48 35 13 7 38 36 57 65 78 123 183 195 370 256 120 39 255 86 385 135 88
32 175 58 355 104 39 10 165 51 280 90 116 40 262 86 325 102 200 52 235 62
251 76 8 7 27 13 41 13 14 0 47 9 74 19 66 26 153 51 173 51 20 -1 237 68 271
85 14 7 43 16 65 20 22 4 45 10 50 14 16 10 88 28 115 30 14 0 41 -3 59 -9z
m-3799 -1120 c0 -5 -6 -10 -12 -10 -17 -1 -68 -46 -68 -60 0 -5 -4 -10 -8 -10
-13 0 -52 -36 -52 -47 0 -10 -64 -71 -66 -63 0 3 -12 -8 -26 -24 -28 -32 -48
-28 -48 10 0 37 87 115 198 176 73 40 82 43 82 28z m17344 -387 c4 -11 1 -22
-8 -29 -9 -6 -16 -19 -16 -28 0 -9 -4 -16 -8 -16 -8 0 -23 -11 -69 -50 -7 -5
-18 -10 -25 -10 -7 0 -21 -11 -33 -25 -11 -14 -30 -27 -42 -28 -13 -1 -23 -8
-23 -16 0 -8 -3 -12 -6 -8 -4 3 -12 1 -20 -6 -24 -23 -96 -72 -100 -69 -2 1
-16 -9 -32 -22 -15 -14 -46 -37 -69 -53 -91 -61 -183 -155 -250 -255 -107
-159 -218 -273 -344 -353 -26 -16 -72 -47 -103 -67 -60 -41 -106 -57 -106 -39
0 6 -5 11 -11 11 -25 0 -48 41 -80 149 -19 64 -21 88 -15 168 9 136 31 185
124 282 57 59 93 87 136 106 59 26 150 50 216 58 35 3 62 13 129 45 19 10 39
16 43 14 4 -1 8 3 8 9 0 6 8 8 19 4 14 -4 23 0 31 15 6 11 15 18 21 15 5 -4 9
-2 9 3 0 13 76 46 88 38 5 -3 12 0 15 8 3 7 29 19 57 26 28 7 54 19 57 26 3 8
14 14 24 14 10 0 19 5 19 10 0 6 9 10 20 10 11 0 20 5 20 10 0 6 9 10 20 10
11 0 20 -5 20 -10 0 -6 10 -2 22 10 12 11 34 20 50 20 15 0 28 5 28 11 0 6 23
10 58 10 86 -1 102 0 102 10 0 16 18 10 24 -8z m3796 -473 c0 -5 14 -10 30
-10 17 0 30 -2 30 -4 0 -14 -14 -36 -22 -36 -15 0 -58 -48 -58 -65 0 -8 -7
-15 -16 -15 -9 0 -25 -10 -35 -22 -11 -11 -19 -18 -19 -15 0 3 -11 -5 -25 -19
-14 -14 -25 -32 -25 -40 0 -8 -10 -26 -22 -38 -35 -36 -71 -85 -93 -125 -95
-169 -261 -353 -390 -430 -99 -60 -234 -64 -280 -9 -14 16 -25 35 -25 41 0 7
-13 25 -30 40 -16 16 -30 33 -30 37 0 5 -11 26 -25 46 -28 41 -34 112 -14 174
6 19 13 51 15 70 3 19 9 50 15 68 6 18 8 36 5 39 -12 12 62 98 119 138 72 50
109 65 155 61 19 -2 46 1 60 6 14 6 68 12 120 14 52 1 108 6 124 10 19 5 31 2
37 -7 8 -11 12 -10 27 6 12 15 29 20 62 20 25 0 47 3 50 7 10 13 103 13 108 0
4 -14 32 -16 32 -2 0 6 16 10 36 10 38 0 64 18 64 44 0 9 5 16 10 16 6 0 10
-4 10 -10z m-18304 -2845 c14 -14 46 -20 84 -17 23 2 134 -20 145 -28 25 -19
87 -50 100 -50 8 0 52 -18 99 -40 l84 -40 4 -47 c7 -78 -24 -119 -72 -93 -11
6 -37 12 -57 15 -49 5 -72 14 -105 41 -15 12 -42 26 -60 29 -46 10 -75 32 -82
60 -5 18 -15 26 -44 31 -40 7 -52 18 -52 49 0 14 -13 25 -40 37 -38 16 -52 42
-33 61 9 10 13 9 29 -8z m1084 -361 c48 -6 81 -16 145 -44 58 -25 103 -31 125
-18 16 10 23 8 44 -12 53 -53 84 -70 126 -70 47 0 140 -28 140 -42 0 -5 20
-18 45 -29 33 -15 50 -17 64 -10 14 8 25 6 44 -9 14 -11 30 -20 36 -20 5 0 14
-7 19 -17 6 -9 16 -14 25 -10 17 7 18 5 42 -88 15 -57 15 -60 -4 -75 -11 -8
-23 -28 -27 -43 -9 -39 -33 -46 -56 -17 -15 18 -29 23 -63 23 -36 0 -45 4 -45
18 0 11 -12 22 -34 29 -18 6 -42 20 -52 31 -12 13 -26 18 -41 15 -13 -4 -25
-1 -30 7 -11 18 -71 47 -98 47 -11 0 -30 7 -41 15 -10 8 -40 15 -66 15 -28 0
-60 8 -80 19 -18 11 -67 32 -108 47 -41 16 -94 38 -118 51 -24 13 -50 23 -58
23 -8 0 -31 11 -52 25 -21 14 -61 32 -91 40 -43 13 -50 19 -41 30 8 10 8 19 1
34 -18 33 -13 39 24 31 19 -4 37 -4 40 0 3 5 21 6 39 3 19 -3 42 0 52 6 11 6
26 8 34 5 8 -3 35 -7 60 -10z m1231 -385 c4 -7 16 -10 27 -7 12 4 25 -2 33
-14 8 -10 39 -26 69 -34 30 -9 63 -20 73 -25 10 -6 22 -7 28 -3 6 3 17 -2 24
-12 12 -16 17 -17 34 -6 31 18 46 15 80 -17 27 -25 32 -27 40 -13 8 14 12 13
30 -8 11 -14 20 -31 21 -37 0 -18 27 -16 34 2 3 8 12 15 21 15 17 0 21 -25 5
-35 -24 -15 -6 -22 48 -20 56 2 112 -10 112 -24 0 -4 6 -8 13 -9 6 -1 29 -4
50 -6 46 -5 68 -21 60 -44 -3 -11 -2 -13 4 -6 4 6 18 16 31 23 18 10 23 9 28
-4 4 -10 20 -15 48 -15 33 0 49 -7 82 -38 66 -60 101 -82 133 -82 21 0 32 -6
36 -20 7 -21 25 -28 25 -10 0 6 5 10 10 10 6 0 10 -9 10 -20 0 -17 7 -20 38
-20 47 0 70 -32 46 -65 -12 -16 -19 -17 -47 -8 -17 6 -54 14 -82 18 -27 4 -56
11 -62 17 -8 6 -28 7 -50 2 -21 -4 -42 -6 -48 -5 -5 1 -36 4 -67 6 -44 3 -58
1 -58 -10 0 -10 -5 -11 -24 -2 -22 11 -23 14 -10 28 12 13 12 19 3 25 -7 4
-17 0 -23 -9 -11 -13 -17 -13 -61 8 -28 13 -60 24 -73 24 -12 1 -30 10 -39 21
-21 24 -43 26 -43 5 0 -8 -8 -15 -17 -16 -121 -5 -118 -5 -116 17 3 25 -24 40
-84 49 -42 7 -49 2 -44 -27 0 -5 -6 -8 -14 -8 -8 0 -12 6 -9 13 7 18 -11 30
-66 47 -25 7 -51 18 -58 23 -7 6 -38 7 -70 4 -57 -6 -59 -5 -108 34 -27 22
-57 50 -66 62 l-18 22 -19 -25 -19 -24 0 24 c0 14 -5 44 -10 67 -10 47 7 103
33 103 18 0 19 5 4 31 -7 15 -7 24 2 35 13 16 58 11 70 -7z"/>
<path d="M13850 10953 c-26 -3 -57 -14 -75 -27 -16 -13 -40 -26 -52 -30 -11
-4 -27 -14 -34 -22 -11 -14 -10 -18 6 -30 57 -41 58 -42 50 -110 -4 -35 -3
-64 2 -64 5 0 48 9 96 19 107 23 224 91 157 91 -22 0 -37 41 -47 128 -6 58 3
54 -103 45z"/>
<path d="M12307 10746 c-21 -22 -14 -37 34 -75 39 -32 39 -33 39 -101 0 -80
-1 -79 89 -58 58 13 95 43 67 54 -9 3 -16 14 -16 24 0 10 -6 20 -14 23 -23 9
-39 73 -27 107 l10 30 -53 0 c-30 0 -67 3 -83 6 -20 4 -35 1 -46 -10z"/>
<path d="M13246 10730 c-33 -11 -84 -22 -114 -26 -44 -5 -55 -11 -63 -31 -12
-33 -14 -30 32 -54 l42 -21 -6 -57 c-10 -90 -7 -91 147 -32 86 33 108 47 90
59 -15 10 -53 121 -51 151 3 32 -7 33 -77 11z"/>
<path d="M1145 18590 c-27 -16 -56 -28 -62 -25 -7 2 -17 -4 -23 -14 -6 -13
-26 -21 -60 -26 -28 -4 -68 -15 -90 -26 -21 -10 -44 -19 -50 -19 -22 0 -42
-32 -70 -111 -26 -73 -30 -109 -11 -109 16 0 42 -73 36 -100 -9 -39 -48 -72
-91 -77 -20 -2 -49 -10 -63 -18 -27 -13 -104 -25 -189 -28 -62 -3 -91 -41 -90
-119 1 -36 6 -62 15 -69 7 -7 11 -20 8 -30 -9 -26 3 -59 21 -59 8 0 14 -4 14
-10 0 -5 7 -10 15 -10 8 0 15 5 15 10 0 6 7 10 14 10 18 0 66 -61 66 -84 0 -9
7 -19 15 -22 8 -4 15 -12 15 -18 0 -7 13 -22 29 -34 16 -12 36 -34 44 -49 43
-83 90 -159 108 -171 10 -7 19 -18 19 -23 0 -6 21 -29 46 -52 26 -23 56 -52
67 -64 28 -31 80 -47 125 -37 54 11 120 6 147 -12 13 -9 29 -13 34 -10 6 4 45
-7 88 -23 128 -48 127 -48 164 4 18 25 38 45 45 45 29 0 51 207 23 235 -5 5
-9 21 -9 37 0 34 30 99 42 92 5 -3 6 40 3 98 -4 77 -1 110 9 130 8 15 17 42
21 60 12 64 42 97 154 170 29 18 78 23 101 8 9 -6 17 -5 22 3 7 11 25 8 212
-35 41 -9 52 -9 76 5 15 10 45 17 67 17 31 0 43 6 64 33 14 17 34 47 43 65 9
17 21 32 26 32 6 0 10 9 10 19 0 11 9 23 20 26 30 10 24 38 -19 92 -39 49
-102 90 -121 78 -18 -11 -80 16 -97 41 -19 30 -73 59 -128 68 -52 9 -106 27
-125 41 -25 19 -72 33 -130 39 -30 3 -80 10 -110 17 -30 6 -89 13 -130 15 -41
1 -93 5 -115 8 -22 3 -78 8 -125 10 -80 5 -88 4 -135 -24z"/>
<path d="M2588 15763 c-19 -5 -34 -36 -19 -41 6 -2 11 -14 11 -27 0 -13 5 -27
10 -30 6 -4 9 -18 8 -33 -2 -27 23 -86 42 -97 5 -3 17 -22 26 -41 23 -48 102
-134 124 -134 10 0 33 -7 52 -15 35 -14 35 -14 80 28 24 23 47 50 51 60 9 24
44 21 58 -4 9 -17 8 -23 -2 -30 -12 -7 -11 -11 1 -19 8 -5 21 -8 28 -5 6 2 12
0 12 -5 0 -6 10 -10 23 -10 23 0 55 29 77 70 8 15 17 19 31 15 14 -5 19 -2 19
13 0 16 9 22 40 27 51 9 70 37 43 67 -10 12 -41 36 -70 54 -42 28 -64 35 -118
38 -36 2 -79 -1 -94 -7 -23 -8 -36 -6 -73 11 -24 12 -58 22 -75 22 -17 0 -41
8 -54 19 -31 24 -102 57 -154 70 -41 11 -49 12 -77 4z"/>
<path d="M12160 14870 c0 -5 5 -10 10 -10 6 0 10 -4 10 -10 0 -5 -9 -10 -20
-10 -17 0 -20 -6 -18 -36 1 -21 -3 -39 -12 -44 -11 -7 -11 -11 3 -24 16 -17
97 -23 97 -8 0 5 9 19 20 32 30 34 7 100 -34 100 -9 0 -16 5 -16 10 0 6 -9 10
-20 10 -11 0 -20 -4 -20 -10z"/>
<path d="M3193 13213 c-7 -2 -13 -12 -13 -21 0 -8 -6 -23 -14 -31 -28 -32 -35
-87 -20 -148 23 -92 35 -115 53 -108 35 14 81 18 81 6 0 -17 35 -13 52 7 18
19 14 55 -20 181 -28 100 -65 136 -119 114z"/>
<path d="M2526 13138 c-21 -51 -30 -102 -17 -94 6 4 11 0 11 -8 0 -9 5 -16 10
-16 6 0 10 -13 10 -30 0 -20 -5 -30 -15 -30 -21 0 -19 -13 4 -34 24 -22 41
-13 41 19 0 18 7 25 30 30 17 4 30 12 29 18 -1 23 -26 157 -30 161 -2 2 -17 6
-32 10 -25 6 -29 3 -41 -26z"/>
</g>
</svg>
